G04 EAGLE Gerber RS-274X export*
G75*
%MOMM*%
%FSLAX34Y34*%
%LPD*%
%AMOC8*
5,1,8,0,0,1.08239X$1,22.5*%
G01*
%ADD10C,0.222250*%
%ADD11R,1.350000X0.600000*%
%ADD12R,2.000000X1.200000*%
%ADD13C,2.184400*%
%ADD14R,2.032000X3.302000*%
%ADD15R,0.400000X1.200000*%
%ADD16R,1.524000X1.524000*%
%ADD17C,1.524000*%
%ADD18C,0.609600*%
%ADD19C,0.203200*%
%ADD20C,0.457200*%
%ADD21C,0.812800*%
%ADD22C,0.914400*%
%ADD23C,0.304800*%

G36*
X51570Y5088D02*
X51570Y5088D01*
X51622Y5087D01*
X51701Y5108D01*
X51782Y5121D01*
X51829Y5143D01*
X51878Y5157D01*
X51948Y5201D01*
X52021Y5236D01*
X52059Y5272D01*
X52103Y5299D01*
X52156Y5362D01*
X52216Y5418D01*
X52241Y5463D01*
X52275Y5502D01*
X52307Y5577D01*
X52348Y5648D01*
X52359Y5699D01*
X52379Y5746D01*
X52388Y5828D01*
X52406Y5908D01*
X52401Y5959D01*
X52407Y6011D01*
X52391Y6091D01*
X52384Y6173D01*
X52365Y6221D01*
X52355Y6271D01*
X52327Y6315D01*
X52285Y6420D01*
X52172Y6559D01*
X52147Y6597D01*
X52101Y6643D01*
X52101Y23357D01*
X53143Y24399D01*
X66578Y24399D01*
X66599Y24402D01*
X66620Y24400D01*
X66730Y24422D01*
X66841Y24439D01*
X66860Y24448D01*
X66881Y24452D01*
X66919Y24476D01*
X67081Y24554D01*
X67163Y24631D01*
X67207Y24659D01*
X106817Y64269D01*
X106847Y64310D01*
X106885Y64346D01*
X106926Y64417D01*
X106974Y64483D01*
X106991Y64532D01*
X107017Y64576D01*
X107035Y64656D01*
X107062Y64734D01*
X107063Y64786D01*
X107075Y64836D01*
X107068Y64918D01*
X107071Y65000D01*
X107057Y65049D01*
X107053Y65101D01*
X107023Y65177D01*
X107001Y65256D01*
X106973Y65300D01*
X106954Y65348D01*
X106902Y65411D01*
X106858Y65480D01*
X106819Y65514D01*
X106786Y65554D01*
X106718Y65599D01*
X106656Y65652D01*
X106608Y65673D01*
X106565Y65701D01*
X106515Y65713D01*
X106411Y65757D01*
X106233Y65775D01*
X106189Y65785D01*
X104394Y65785D01*
X104292Y65770D01*
X104190Y65762D01*
X104162Y65750D01*
X104131Y65745D01*
X104039Y65701D01*
X103943Y65663D01*
X103920Y65643D01*
X103892Y65630D01*
X103817Y65560D01*
X103737Y65495D01*
X103720Y65469D01*
X103698Y65448D01*
X103647Y65359D01*
X103590Y65274D01*
X103584Y65250D01*
X103566Y65218D01*
X103508Y64958D01*
X103511Y64920D01*
X103506Y64897D01*
X103506Y64049D01*
X101813Y62356D01*
X92751Y62356D01*
X91058Y64049D01*
X91058Y73111D01*
X92751Y74804D01*
X101813Y74804D01*
X103063Y73553D01*
X103146Y73492D01*
X103224Y73426D01*
X103252Y73414D01*
X103277Y73396D01*
X103374Y73362D01*
X103469Y73322D01*
X103499Y73318D01*
X103528Y73308D01*
X103631Y73305D01*
X103733Y73294D01*
X103763Y73300D01*
X103794Y73299D01*
X103893Y73326D01*
X103994Y73346D01*
X104014Y73359D01*
X104050Y73369D01*
X104275Y73512D01*
X104299Y73541D01*
X104319Y73553D01*
X106459Y75693D01*
X110457Y75693D01*
X112431Y73719D01*
X112440Y73712D01*
X112444Y73707D01*
X112473Y73688D01*
X112508Y73651D01*
X112579Y73610D01*
X112645Y73561D01*
X112694Y73544D01*
X112738Y73519D01*
X112818Y73501D01*
X112896Y73474D01*
X112948Y73472D01*
X112998Y73461D01*
X113080Y73468D01*
X113162Y73465D01*
X113211Y73478D01*
X113263Y73483D01*
X113339Y73513D01*
X113418Y73535D01*
X113462Y73562D01*
X113510Y73582D01*
X113573Y73633D01*
X113642Y73677D01*
X113676Y73717D01*
X113716Y73749D01*
X113761Y73818D01*
X113814Y73880D01*
X113835Y73927D01*
X113863Y73970D01*
X113875Y74021D01*
X113876Y74023D01*
X113887Y74044D01*
X113891Y74058D01*
X113919Y74124D01*
X113931Y74238D01*
X113945Y74303D01*
X113943Y74328D01*
X113947Y74347D01*
X113947Y78707D01*
X114735Y79495D01*
X114748Y79512D01*
X114764Y79525D01*
X114826Y79619D01*
X114893Y79709D01*
X114900Y79729D01*
X114911Y79746D01*
X114921Y79791D01*
X114980Y79960D01*
X114984Y80073D01*
X114995Y80123D01*
X114995Y81387D01*
X114988Y81438D01*
X114989Y81489D01*
X114968Y81569D01*
X114955Y81650D01*
X114933Y81696D01*
X114919Y81746D01*
X114875Y81815D01*
X114840Y81889D01*
X114805Y81927D01*
X114777Y81970D01*
X114714Y82023D01*
X114658Y82083D01*
X114614Y82109D01*
X114574Y82142D01*
X114499Y82175D01*
X114428Y82215D01*
X114377Y82226D01*
X114330Y82247D01*
X114248Y82255D01*
X114168Y82273D01*
X114117Y82269D01*
X114065Y82274D01*
X113985Y82258D01*
X113903Y82251D01*
X113855Y82232D01*
X113805Y82222D01*
X113761Y82194D01*
X113656Y82152D01*
X113517Y82039D01*
X113479Y82015D01*
X110457Y78993D01*
X106459Y78993D01*
X105022Y80430D01*
X104981Y80461D01*
X104945Y80498D01*
X104874Y80539D01*
X104808Y80588D01*
X104759Y80605D01*
X104715Y80630D01*
X104635Y80648D01*
X104557Y80675D01*
X104505Y80677D01*
X104455Y80688D01*
X104373Y80681D01*
X104291Y80684D01*
X104242Y80671D01*
X104190Y80666D01*
X104114Y80636D01*
X104035Y80614D01*
X103991Y80587D01*
X103943Y80567D01*
X103880Y80516D01*
X103811Y80472D01*
X103777Y80432D01*
X103737Y80400D01*
X103692Y80331D01*
X103639Y80269D01*
X103618Y80222D01*
X103590Y80179D01*
X103578Y80128D01*
X103534Y80025D01*
X103516Y79846D01*
X103506Y79802D01*
X103506Y79289D01*
X101813Y77596D01*
X92751Y77596D01*
X91058Y79289D01*
X91058Y88351D01*
X92751Y90044D01*
X101813Y90044D01*
X103506Y88351D01*
X103506Y87838D01*
X103513Y87787D01*
X103512Y87736D01*
X103533Y87656D01*
X103546Y87575D01*
X103568Y87529D01*
X103582Y87479D01*
X103626Y87410D01*
X103661Y87336D01*
X103696Y87298D01*
X103724Y87255D01*
X103787Y87202D01*
X103843Y87142D01*
X103887Y87116D01*
X103927Y87083D01*
X104002Y87050D01*
X104073Y87010D01*
X104124Y86999D01*
X104171Y86978D01*
X104253Y86970D01*
X104333Y86952D01*
X104384Y86956D01*
X104436Y86951D01*
X104516Y86967D01*
X104598Y86974D01*
X104646Y86993D01*
X104696Y87003D01*
X104740Y87031D01*
X104845Y87073D01*
X104984Y87186D01*
X105022Y87210D01*
X106459Y88647D01*
X110457Y88647D01*
X113479Y85625D01*
X113520Y85594D01*
X113556Y85557D01*
X113627Y85516D01*
X113693Y85467D01*
X113742Y85450D01*
X113786Y85425D01*
X113866Y85407D01*
X113944Y85380D01*
X113996Y85378D01*
X114046Y85367D01*
X114128Y85374D01*
X114210Y85371D01*
X114259Y85384D01*
X114311Y85389D01*
X114387Y85419D01*
X114466Y85441D01*
X114510Y85468D01*
X114558Y85488D01*
X114621Y85539D01*
X114690Y85583D01*
X114724Y85623D01*
X114764Y85655D01*
X114809Y85724D01*
X114862Y85786D01*
X114883Y85833D01*
X114911Y85876D01*
X114923Y85927D01*
X114967Y86030D01*
X114985Y86209D01*
X114995Y86253D01*
X114995Y89726D01*
X114992Y89747D01*
X114994Y89768D01*
X114972Y89878D01*
X114955Y89989D01*
X114946Y90008D01*
X114942Y90029D01*
X114918Y90067D01*
X114840Y90229D01*
X114763Y90311D01*
X114735Y90355D01*
X113403Y91687D01*
X113386Y91700D01*
X113372Y91716D01*
X113279Y91778D01*
X113189Y91845D01*
X113169Y91852D01*
X113151Y91863D01*
X113107Y91873D01*
X112938Y91932D01*
X112825Y91936D01*
X112774Y91947D01*
X86233Y91947D01*
X86131Y91932D01*
X86029Y91924D01*
X86001Y91912D01*
X85970Y91907D01*
X85878Y91863D01*
X85782Y91825D01*
X85759Y91805D01*
X85731Y91792D01*
X85656Y91722D01*
X85576Y91657D01*
X85559Y91631D01*
X85537Y91610D01*
X85486Y91521D01*
X85429Y91436D01*
X85423Y91412D01*
X85405Y91380D01*
X85347Y91120D01*
X85350Y91082D01*
X85345Y91059D01*
X85345Y90932D01*
X85360Y90830D01*
X85368Y90728D01*
X85380Y90700D01*
X85385Y90669D01*
X85429Y90577D01*
X85467Y90481D01*
X85487Y90458D01*
X85500Y90430D01*
X85570Y90355D01*
X85635Y90275D01*
X85661Y90258D01*
X85682Y90236D01*
X85771Y90185D01*
X85856Y90128D01*
X85880Y90122D01*
X85912Y90104D01*
X86172Y90046D01*
X86210Y90049D01*
X86233Y90044D01*
X87081Y90044D01*
X88774Y88351D01*
X88774Y79289D01*
X87081Y77596D01*
X78019Y77596D01*
X76326Y79289D01*
X76326Y88351D01*
X78019Y90044D01*
X78867Y90044D01*
X78969Y90059D01*
X79071Y90067D01*
X79099Y90079D01*
X79130Y90084D01*
X79222Y90128D01*
X79318Y90166D01*
X79341Y90186D01*
X79369Y90199D01*
X79444Y90269D01*
X79524Y90334D01*
X79541Y90360D01*
X79563Y90381D01*
X79614Y90470D01*
X79671Y90555D01*
X79677Y90579D01*
X79695Y90611D01*
X79753Y90871D01*
X79750Y90909D01*
X79755Y90932D01*
X79755Y91059D01*
X79740Y91161D01*
X79732Y91263D01*
X79720Y91291D01*
X79715Y91322D01*
X79671Y91414D01*
X79633Y91510D01*
X79613Y91533D01*
X79600Y91561D01*
X79530Y91636D01*
X79465Y91716D01*
X79439Y91733D01*
X79418Y91755D01*
X79329Y91806D01*
X79244Y91863D01*
X79220Y91869D01*
X79188Y91887D01*
X78928Y91945D01*
X78890Y91942D01*
X78867Y91947D01*
X65280Y91947D01*
X65259Y91944D01*
X65238Y91946D01*
X65128Y91924D01*
X65017Y91907D01*
X64998Y91898D01*
X64977Y91894D01*
X64939Y91870D01*
X64777Y91792D01*
X64695Y91715D01*
X64651Y91687D01*
X60789Y87825D01*
X60776Y87808D01*
X60760Y87794D01*
X60698Y87701D01*
X60631Y87611D01*
X60624Y87591D01*
X60613Y87573D01*
X60603Y87529D01*
X60544Y87360D01*
X60540Y87247D01*
X60529Y87196D01*
X60529Y83117D01*
X59487Y82075D01*
X44513Y82075D01*
X43471Y83117D01*
X43471Y90591D01*
X44106Y91226D01*
X44167Y91309D01*
X44234Y91387D01*
X44246Y91415D01*
X44264Y91440D01*
X44298Y91537D01*
X44338Y91631D01*
X44341Y91662D01*
X44351Y91691D01*
X44355Y91794D01*
X44366Y91896D01*
X44360Y91926D01*
X44361Y91957D01*
X44334Y92056D01*
X44314Y92156D01*
X44301Y92177D01*
X44291Y92213D01*
X44148Y92437D01*
X44119Y92462D01*
X44106Y92482D01*
X43471Y93117D01*
X43471Y100591D01*
X44106Y101226D01*
X44167Y101309D01*
X44234Y101387D01*
X44246Y101415D01*
X44264Y101440D01*
X44298Y101537D01*
X44338Y101631D01*
X44341Y101662D01*
X44351Y101691D01*
X44355Y101794D01*
X44366Y101896D01*
X44360Y101926D01*
X44361Y101957D01*
X44334Y102056D01*
X44314Y102156D01*
X44301Y102177D01*
X44291Y102213D01*
X44148Y102437D01*
X44119Y102462D01*
X44106Y102482D01*
X43471Y103117D01*
X43471Y110591D01*
X43568Y110687D01*
X43629Y110770D01*
X43695Y110848D01*
X43707Y110876D01*
X43725Y110901D01*
X43759Y110998D01*
X43799Y111092D01*
X43803Y111123D01*
X43813Y111152D01*
X43816Y111255D01*
X43827Y111357D01*
X43821Y111387D01*
X43822Y111418D01*
X43795Y111517D01*
X43775Y111618D01*
X43762Y111638D01*
X43752Y111674D01*
X43609Y111899D01*
X43580Y111923D01*
X43568Y111943D01*
X43217Y112294D01*
X42882Y112873D01*
X42709Y113519D01*
X42709Y115355D01*
X51389Y115355D01*
X51490Y115370D01*
X51593Y115378D01*
X51621Y115390D01*
X51652Y115394D01*
X51744Y115439D01*
X51839Y115477D01*
X51863Y115497D01*
X51891Y115510D01*
X51966Y115580D01*
X51997Y115606D01*
X52013Y115586D01*
X52039Y115569D01*
X52060Y115547D01*
X52149Y115496D01*
X52234Y115439D01*
X52258Y115433D01*
X52291Y115415D01*
X52550Y115357D01*
X52588Y115360D01*
X52611Y115355D01*
X61291Y115355D01*
X61291Y113519D01*
X61118Y112873D01*
X60783Y112294D01*
X60432Y111943D01*
X60372Y111861D01*
X60305Y111782D01*
X60293Y111754D01*
X60275Y111729D01*
X60241Y111632D01*
X60201Y111538D01*
X60197Y111507D01*
X60187Y111478D01*
X60184Y111376D01*
X60173Y111274D01*
X60179Y111243D01*
X60178Y111213D01*
X60205Y111114D01*
X60225Y111013D01*
X60238Y110993D01*
X60248Y110956D01*
X60391Y110732D01*
X60420Y110707D01*
X60432Y110687D01*
X60703Y110417D01*
X60719Y110404D01*
X60733Y110388D01*
X60826Y110326D01*
X60917Y110259D01*
X60936Y110252D01*
X60954Y110241D01*
X60998Y110231D01*
X61168Y110172D01*
X61280Y110168D01*
X61331Y110157D01*
X76273Y110157D01*
X76324Y110164D01*
X76375Y110163D01*
X76455Y110184D01*
X76535Y110197D01*
X76582Y110219D01*
X76632Y110233D01*
X76701Y110277D01*
X76775Y110312D01*
X76813Y110348D01*
X76856Y110375D01*
X76909Y110438D01*
X76969Y110494D01*
X76995Y110538D01*
X77028Y110578D01*
X77060Y110653D01*
X77101Y110724D01*
X77112Y110775D01*
X77133Y110822D01*
X77141Y110904D01*
X77159Y110984D01*
X77155Y111035D01*
X77160Y111087D01*
X77144Y111167D01*
X77137Y111249D01*
X77118Y111297D01*
X77108Y111347D01*
X77080Y111391D01*
X77038Y111496D01*
X76925Y111635D01*
X76901Y111673D01*
X76294Y112280D01*
X75813Y113113D01*
X75564Y114041D01*
X75564Y116079D01*
X81661Y116079D01*
X81762Y116094D01*
X81865Y116103D01*
X81893Y116114D01*
X81924Y116119D01*
X82016Y116163D01*
X82111Y116202D01*
X82135Y116221D01*
X82163Y116234D01*
X82238Y116304D01*
X82318Y116369D01*
X82335Y116395D01*
X82357Y116416D01*
X82408Y116505D01*
X82465Y116590D01*
X82470Y116614D01*
X82489Y116646D01*
X82547Y116906D01*
X82545Y116930D01*
X82547Y116939D01*
X82546Y116953D01*
X82549Y116967D01*
X82549Y117857D01*
X82551Y117857D01*
X82551Y116967D01*
X82566Y116866D01*
X82575Y116763D01*
X82586Y116735D01*
X82591Y116704D01*
X82635Y116612D01*
X82674Y116517D01*
X82693Y116493D01*
X82706Y116465D01*
X82776Y116390D01*
X82841Y116310D01*
X82867Y116293D01*
X82888Y116271D01*
X82977Y116220D01*
X83062Y116163D01*
X83086Y116157D01*
X83119Y116139D01*
X83378Y116081D01*
X83416Y116084D01*
X83439Y116079D01*
X89606Y116079D01*
X89612Y116058D01*
X89656Y115989D01*
X89691Y115915D01*
X89727Y115877D01*
X89754Y115833D01*
X89817Y115780D01*
X89873Y115720D01*
X89917Y115695D01*
X89957Y115661D01*
X90032Y115629D01*
X90103Y115589D01*
X90154Y115577D01*
X90201Y115557D01*
X90283Y115549D01*
X90363Y115531D01*
X90414Y115535D01*
X90466Y115530D01*
X90546Y115546D01*
X90628Y115552D01*
X90676Y115572D01*
X90726Y115582D01*
X90770Y115609D01*
X90875Y115651D01*
X91014Y115764D01*
X91052Y115789D01*
X91306Y116043D01*
X91319Y116060D01*
X91335Y116073D01*
X91397Y116167D01*
X91464Y116257D01*
X91471Y116277D01*
X91482Y116294D01*
X91492Y116339D01*
X91551Y116508D01*
X91555Y116621D01*
X91566Y116671D01*
X91566Y122387D01*
X93259Y124080D01*
X102321Y124080D01*
X104014Y122387D01*
X104014Y117267D01*
X104029Y117165D01*
X104037Y117063D01*
X104049Y117035D01*
X104054Y117004D01*
X104098Y116912D01*
X104136Y116816D01*
X104156Y116793D01*
X104169Y116765D01*
X104239Y116690D01*
X104304Y116610D01*
X104330Y116593D01*
X104351Y116571D01*
X104440Y116520D01*
X104525Y116463D01*
X104549Y116457D01*
X104581Y116439D01*
X104841Y116381D01*
X104879Y116384D01*
X104902Y116379D01*
X114107Y116379D01*
X114209Y116394D01*
X114311Y116402D01*
X114339Y116414D01*
X114370Y116419D01*
X114462Y116463D01*
X114558Y116501D01*
X114581Y116521D01*
X114609Y116534D01*
X114684Y116604D01*
X114764Y116669D01*
X114781Y116695D01*
X114803Y116716D01*
X114854Y116805D01*
X114911Y116890D01*
X114917Y116914D01*
X114935Y116946D01*
X114993Y117206D01*
X114990Y117244D01*
X114995Y117267D01*
X114995Y119813D01*
X116037Y120855D01*
X121092Y120855D01*
X121113Y120858D01*
X121134Y120856D01*
X121244Y120878D01*
X121355Y120895D01*
X121373Y120904D01*
X121394Y120908D01*
X121433Y120932D01*
X121594Y121010D01*
X121676Y121087D01*
X121678Y121088D01*
X122293Y121444D01*
X122939Y121617D01*
X124275Y121617D01*
X124275Y113187D01*
X124290Y113086D01*
X124298Y112983D01*
X124310Y112955D01*
X124314Y112924D01*
X124359Y112832D01*
X124397Y112737D01*
X124417Y112713D01*
X124430Y112685D01*
X124500Y112610D01*
X124565Y112530D01*
X124591Y112513D01*
X124612Y112491D01*
X124701Y112440D01*
X124786Y112383D01*
X124810Y112378D01*
X124842Y112359D01*
X125102Y112301D01*
X125140Y112304D01*
X125163Y112299D01*
X125385Y112299D01*
X125487Y112314D01*
X125589Y112323D01*
X125617Y112334D01*
X125648Y112339D01*
X125740Y112383D01*
X125836Y112422D01*
X125859Y112441D01*
X125887Y112454D01*
X125962Y112525D01*
X126042Y112589D01*
X126059Y112615D01*
X126081Y112636D01*
X126132Y112725D01*
X126189Y112810D01*
X126195Y112834D01*
X126213Y112867D01*
X126271Y113126D01*
X126268Y113164D01*
X126273Y113187D01*
X126273Y121617D01*
X126821Y121617D01*
X126923Y121632D01*
X127025Y121640D01*
X127053Y121652D01*
X127084Y121657D01*
X127176Y121701D01*
X127272Y121739D01*
X127295Y121759D01*
X127323Y121772D01*
X127398Y121842D01*
X127478Y121907D01*
X127495Y121933D01*
X127517Y121954D01*
X127568Y122043D01*
X127625Y122128D01*
X127631Y122152D01*
X127649Y122184D01*
X127707Y122444D01*
X127704Y122482D01*
X127709Y122505D01*
X127709Y124238D01*
X127706Y124259D01*
X127708Y124280D01*
X127686Y124390D01*
X127669Y124501D01*
X127660Y124520D01*
X127656Y124541D01*
X127632Y124579D01*
X127554Y124741D01*
X127477Y124823D01*
X127449Y124866D01*
X114910Y137405D01*
X114894Y137418D01*
X114880Y137434D01*
X114787Y137496D01*
X114697Y137563D01*
X114677Y137570D01*
X114659Y137581D01*
X114615Y137591D01*
X114445Y137650D01*
X114333Y137654D01*
X114282Y137665D01*
X96007Y137665D01*
X94965Y138707D01*
X94965Y173201D01*
X96007Y174243D01*
X100269Y174243D01*
X100371Y174258D01*
X100473Y174266D01*
X100501Y174278D01*
X100532Y174283D01*
X100624Y174327D01*
X100720Y174365D01*
X100743Y174385D01*
X100771Y174398D01*
X100846Y174468D01*
X100926Y174533D01*
X100943Y174559D01*
X100965Y174580D01*
X101016Y174669D01*
X101073Y174754D01*
X101079Y174778D01*
X101097Y174810D01*
X101155Y175070D01*
X101152Y175108D01*
X101157Y175131D01*
X101157Y203579D01*
X101148Y203641D01*
X101149Y203703D01*
X101128Y203772D01*
X101117Y203842D01*
X101091Y203898D01*
X101073Y203958D01*
X101033Y204017D01*
X101002Y204082D01*
X100959Y204127D01*
X100925Y204178D01*
X100886Y204206D01*
X100820Y204276D01*
X100635Y204382D01*
X100609Y204400D01*
X99806Y204733D01*
X96233Y208306D01*
X94299Y212974D01*
X94299Y218026D01*
X96233Y222694D01*
X99806Y226267D01*
X104474Y228201D01*
X109526Y228201D01*
X114194Y226267D01*
X117767Y222694D01*
X119701Y218026D01*
X119701Y212974D01*
X117767Y208306D01*
X114194Y204733D01*
X113391Y204400D01*
X113338Y204368D01*
X113280Y204345D01*
X113225Y204300D01*
X113163Y204263D01*
X113122Y204217D01*
X113074Y204177D01*
X113034Y204118D01*
X112987Y204064D01*
X112961Y204008D01*
X112927Y203956D01*
X112916Y203909D01*
X112877Y203822D01*
X112850Y203610D01*
X112843Y203579D01*
X112843Y175131D01*
X112858Y175029D01*
X112866Y174927D01*
X112878Y174899D01*
X112883Y174868D01*
X112927Y174776D01*
X112965Y174680D01*
X112985Y174657D01*
X112998Y174629D01*
X113068Y174554D01*
X113133Y174474D01*
X113159Y174457D01*
X113180Y174435D01*
X113269Y174384D01*
X113354Y174327D01*
X113378Y174321D01*
X113410Y174303D01*
X113670Y174245D01*
X113708Y174248D01*
X113731Y174243D01*
X117801Y174243D01*
X118843Y173201D01*
X118843Y163195D01*
X118858Y163093D01*
X118866Y162991D01*
X118878Y162963D01*
X118883Y162932D01*
X118927Y162840D01*
X118965Y162744D01*
X118985Y162721D01*
X118998Y162693D01*
X119068Y162618D01*
X119133Y162538D01*
X119159Y162521D01*
X119180Y162499D01*
X119269Y162448D01*
X119354Y162391D01*
X119378Y162385D01*
X119410Y162367D01*
X119670Y162309D01*
X119708Y162312D01*
X119731Y162307D01*
X126366Y162307D01*
X126628Y162347D01*
X126675Y162369D01*
X126706Y162374D01*
X127769Y162815D01*
X130295Y162815D01*
X132629Y161848D01*
X134416Y160061D01*
X135383Y157727D01*
X135383Y155201D01*
X134416Y152867D01*
X132629Y151080D01*
X130295Y150113D01*
X127769Y150113D01*
X126706Y150554D01*
X126448Y150617D01*
X126396Y150615D01*
X126366Y150621D01*
X119731Y150621D01*
X119629Y150606D01*
X119527Y150598D01*
X119499Y150586D01*
X119468Y150581D01*
X119376Y150537D01*
X119280Y150499D01*
X119257Y150479D01*
X119229Y150466D01*
X119154Y150396D01*
X119074Y150331D01*
X119057Y150305D01*
X119035Y150284D01*
X118984Y150195D01*
X118927Y150110D01*
X118921Y150086D01*
X118903Y150054D01*
X118845Y149794D01*
X118848Y149756D01*
X118843Y149733D01*
X118843Y145338D01*
X118846Y145317D01*
X118844Y145296D01*
X118866Y145186D01*
X118883Y145075D01*
X118892Y145056D01*
X118896Y145035D01*
X118920Y144997D01*
X118998Y144835D01*
X119075Y144753D01*
X119103Y144710D01*
X135839Y127974D01*
X135839Y123920D01*
X135846Y123869D01*
X135845Y123817D01*
X135866Y123738D01*
X135879Y123657D01*
X135901Y123610D01*
X135915Y123560D01*
X135959Y123491D01*
X135994Y123417D01*
X136029Y123380D01*
X136057Y123336D01*
X136120Y123283D01*
X136176Y123223D01*
X136220Y123197D01*
X136260Y123164D01*
X136335Y123132D01*
X136406Y123091D01*
X136457Y123080D01*
X136504Y123060D01*
X136586Y123051D01*
X136666Y123033D01*
X136717Y123038D01*
X136769Y123032D01*
X136849Y123048D01*
X136931Y123055D01*
X136979Y123074D01*
X137029Y123084D01*
X137073Y123112D01*
X137178Y123154D01*
X137317Y123267D01*
X137355Y123291D01*
X158205Y144142D01*
X158218Y144158D01*
X158234Y144172D01*
X158296Y144265D01*
X158363Y144355D01*
X158370Y144375D01*
X158381Y144393D01*
X158391Y144437D01*
X158450Y144607D01*
X158454Y144719D01*
X158465Y144770D01*
X158465Y166406D01*
X158462Y166427D01*
X158464Y166448D01*
X158442Y166558D01*
X158425Y166669D01*
X158416Y166688D01*
X158412Y166708D01*
X158388Y166747D01*
X158310Y166908D01*
X158233Y166990D01*
X158205Y167034D01*
X137047Y188192D01*
X136157Y190340D01*
X136157Y203579D01*
X136148Y203641D01*
X136149Y203703D01*
X136128Y203772D01*
X136117Y203842D01*
X136091Y203898D01*
X136073Y203958D01*
X136033Y204017D01*
X136002Y204082D01*
X135959Y204127D01*
X135925Y204178D01*
X135886Y204206D01*
X135820Y204276D01*
X135635Y204382D01*
X135609Y204400D01*
X134806Y204733D01*
X131233Y208306D01*
X129299Y212974D01*
X129299Y218026D01*
X131233Y222694D01*
X134806Y226267D01*
X139474Y228201D01*
X144526Y228201D01*
X149194Y226267D01*
X152767Y222694D01*
X154701Y218026D01*
X154701Y212974D01*
X152767Y208306D01*
X149194Y204733D01*
X148391Y204400D01*
X148338Y204368D01*
X148280Y204345D01*
X148225Y204300D01*
X148163Y204263D01*
X148122Y204217D01*
X148074Y204177D01*
X148034Y204118D01*
X147987Y204064D01*
X147961Y204008D01*
X147927Y203956D01*
X147916Y203909D01*
X147877Y203822D01*
X147850Y203610D01*
X147843Y203579D01*
X147843Y194290D01*
X147846Y194269D01*
X147844Y194248D01*
X147866Y194138D01*
X147883Y194027D01*
X147892Y194008D01*
X147896Y193988D01*
X147920Y193949D01*
X147970Y193847D01*
X147978Y193827D01*
X147982Y193823D01*
X147998Y193788D01*
X148075Y193706D01*
X148103Y193662D01*
X167262Y174503D01*
X167279Y174490D01*
X167292Y174474D01*
X167386Y174412D01*
X167476Y174345D01*
X167496Y174338D01*
X167513Y174327D01*
X167558Y174317D01*
X167727Y174258D01*
X167840Y174254D01*
X167890Y174243D01*
X181301Y174243D01*
X182343Y173201D01*
X182343Y162685D01*
X182358Y162583D01*
X182366Y162481D01*
X182378Y162453D01*
X182383Y162422D01*
X182427Y162330D01*
X182465Y162234D01*
X182485Y162211D01*
X182498Y162183D01*
X182568Y162108D01*
X182633Y162028D01*
X182659Y162011D01*
X182680Y161989D01*
X182769Y161938D01*
X182854Y161881D01*
X182878Y161875D01*
X182910Y161857D01*
X183170Y161799D01*
X183208Y161802D01*
X183231Y161797D01*
X186156Y161797D01*
X186419Y161837D01*
X186465Y161859D01*
X186496Y161864D01*
X186951Y162053D01*
X189477Y162053D01*
X191811Y161086D01*
X193598Y159299D01*
X194565Y156965D01*
X194565Y154439D01*
X193598Y152105D01*
X191811Y150318D01*
X189477Y149351D01*
X186951Y149351D01*
X185279Y150044D01*
X185021Y150107D01*
X184970Y150105D01*
X184939Y150111D01*
X183231Y150111D01*
X183129Y150096D01*
X183027Y150088D01*
X182999Y150076D01*
X182968Y150071D01*
X182876Y150027D01*
X182780Y149989D01*
X182757Y149969D01*
X182729Y149956D01*
X182654Y149886D01*
X182574Y149821D01*
X182557Y149795D01*
X182535Y149774D01*
X182484Y149685D01*
X182427Y149600D01*
X182421Y149576D01*
X182403Y149544D01*
X182345Y149284D01*
X182348Y149246D01*
X182343Y149223D01*
X182343Y138707D01*
X181301Y137665D01*
X163594Y137665D01*
X163573Y137662D01*
X163552Y137664D01*
X163442Y137642D01*
X163331Y137625D01*
X163312Y137616D01*
X163291Y137612D01*
X163253Y137588D01*
X163091Y137510D01*
X163009Y137433D01*
X162966Y137405D01*
X142599Y117038D01*
X142586Y117022D01*
X142570Y117008D01*
X142508Y116915D01*
X142441Y116825D01*
X142434Y116805D01*
X142423Y116787D01*
X142413Y116743D01*
X142354Y116573D01*
X142350Y116461D01*
X142339Y116410D01*
X142339Y111392D01*
X142313Y111367D01*
X142300Y111350D01*
X142284Y111336D01*
X142222Y111243D01*
X142155Y111153D01*
X142148Y111133D01*
X142137Y111115D01*
X142127Y111071D01*
X142068Y110902D01*
X142064Y110789D01*
X142053Y110738D01*
X142053Y106339D01*
X141011Y105297D01*
X135506Y105297D01*
X135491Y105310D01*
X135463Y105322D01*
X135438Y105340D01*
X135342Y105374D01*
X135247Y105414D01*
X135216Y105417D01*
X135187Y105427D01*
X135085Y105431D01*
X134982Y105442D01*
X134952Y105436D01*
X134922Y105437D01*
X134823Y105410D01*
X134722Y105390D01*
X134702Y105377D01*
X134665Y105367D01*
X134556Y105297D01*
X129456Y105297D01*
X129435Y105294D01*
X129414Y105296D01*
X129304Y105274D01*
X129193Y105257D01*
X129175Y105248D01*
X129154Y105244D01*
X129115Y105220D01*
X128954Y105142D01*
X128872Y105065D01*
X128871Y105064D01*
X128403Y104794D01*
X128336Y104741D01*
X128264Y104695D01*
X128233Y104658D01*
X128195Y104628D01*
X128147Y104558D01*
X128092Y104492D01*
X128073Y104448D01*
X128046Y104408D01*
X128021Y104326D01*
X127987Y104248D01*
X127982Y104200D01*
X127968Y104154D01*
X127969Y104069D01*
X127960Y103983D01*
X127969Y103936D01*
X127970Y103888D01*
X127995Y103807D01*
X128012Y103723D01*
X128031Y103693D01*
X128049Y103635D01*
X128200Y103416D01*
X128213Y103406D01*
X128219Y103397D01*
X128485Y103131D01*
X128502Y103118D01*
X128515Y103102D01*
X128609Y103040D01*
X128699Y102973D01*
X128719Y102966D01*
X128736Y102955D01*
X128781Y102945D01*
X128950Y102886D01*
X129063Y102882D01*
X129113Y102871D01*
X149479Y102871D01*
X149581Y102886D01*
X149683Y102894D01*
X149711Y102906D01*
X149742Y102911D01*
X149834Y102955D01*
X149930Y102993D01*
X149953Y103013D01*
X149981Y103026D01*
X150056Y103096D01*
X150136Y103161D01*
X150153Y103187D01*
X150175Y103208D01*
X150226Y103297D01*
X150283Y103382D01*
X150289Y103406D01*
X150307Y103438D01*
X150365Y103698D01*
X150362Y103736D01*
X150367Y103759D01*
X150367Y107917D01*
X153195Y110745D01*
X157193Y110745D01*
X158965Y108973D01*
X158982Y108960D01*
X158995Y108944D01*
X159089Y108882D01*
X159179Y108815D01*
X159199Y108808D01*
X159216Y108797D01*
X159261Y108787D01*
X159430Y108728D01*
X159543Y108724D01*
X159593Y108713D01*
X181100Y108713D01*
X181121Y108716D01*
X181142Y108714D01*
X181252Y108736D01*
X181363Y108753D01*
X181382Y108762D01*
X181403Y108766D01*
X181441Y108790D01*
X181603Y108868D01*
X181685Y108945D01*
X181729Y108973D01*
X189211Y116455D01*
X189224Y116472D01*
X189240Y116486D01*
X189302Y116579D01*
X189369Y116669D01*
X189376Y116689D01*
X189387Y116707D01*
X189397Y116751D01*
X189456Y116920D01*
X189460Y117033D01*
X189471Y117084D01*
X189471Y120591D01*
X190513Y121633D01*
X205487Y121633D01*
X206529Y120591D01*
X206529Y113117D01*
X205894Y112482D01*
X205833Y112399D01*
X205766Y112321D01*
X205754Y112293D01*
X205736Y112268D01*
X205702Y112171D01*
X205662Y112077D01*
X205659Y112046D01*
X205649Y112017D01*
X205645Y111914D01*
X205634Y111812D01*
X205640Y111782D01*
X205639Y111751D01*
X205666Y111652D01*
X205686Y111552D01*
X205699Y111531D01*
X205709Y111495D01*
X205852Y111271D01*
X205881Y111246D01*
X205894Y111226D01*
X206529Y110591D01*
X206529Y103117D01*
X205894Y102482D01*
X205833Y102399D01*
X205766Y102321D01*
X205754Y102293D01*
X205736Y102268D01*
X205702Y102171D01*
X205662Y102077D01*
X205659Y102046D01*
X205649Y102017D01*
X205645Y101914D01*
X205634Y101812D01*
X205640Y101782D01*
X205639Y101751D01*
X205666Y101652D01*
X205686Y101552D01*
X205699Y101531D01*
X205709Y101495D01*
X205852Y101271D01*
X205881Y101246D01*
X205894Y101226D01*
X206529Y100591D01*
X206529Y93117D01*
X206432Y93021D01*
X206372Y92938D01*
X206305Y92860D01*
X206293Y92832D01*
X206275Y92807D01*
X206241Y92710D01*
X206201Y92616D01*
X206197Y92585D01*
X206187Y92556D01*
X206184Y92453D01*
X206173Y92351D01*
X206179Y92321D01*
X206178Y92290D01*
X206205Y92191D01*
X206225Y92090D01*
X206238Y92070D01*
X206248Y92034D01*
X206391Y91809D01*
X206420Y91785D01*
X206432Y91765D01*
X206783Y91414D01*
X207118Y90835D01*
X207291Y90189D01*
X207291Y88353D01*
X198611Y88353D01*
X198510Y88338D01*
X198407Y88330D01*
X198379Y88318D01*
X198348Y88313D01*
X198256Y88269D01*
X198161Y88231D01*
X198137Y88211D01*
X198109Y88198D01*
X198034Y88128D01*
X198003Y88102D01*
X197987Y88122D01*
X197961Y88139D01*
X197940Y88161D01*
X197851Y88212D01*
X197766Y88269D01*
X197742Y88275D01*
X197709Y88293D01*
X197450Y88351D01*
X197412Y88348D01*
X197389Y88353D01*
X188709Y88353D01*
X188709Y90189D01*
X188882Y90835D01*
X189049Y91123D01*
X189074Y91187D01*
X189108Y91246D01*
X189122Y91310D01*
X189146Y91370D01*
X189151Y91439D01*
X189166Y91506D01*
X189160Y91571D01*
X189165Y91635D01*
X189150Y91702D01*
X189144Y91771D01*
X189120Y91831D01*
X189105Y91894D01*
X189071Y91954D01*
X189045Y92018D01*
X189004Y92068D01*
X188971Y92124D01*
X188921Y92170D01*
X188878Y92224D01*
X188823Y92260D01*
X188776Y92304D01*
X188714Y92333D01*
X188656Y92371D01*
X188612Y92381D01*
X188535Y92418D01*
X188293Y92452D01*
X188280Y92455D01*
X176109Y92455D01*
X176092Y92453D01*
X176075Y92455D01*
X175961Y92433D01*
X175846Y92415D01*
X175831Y92408D01*
X175814Y92405D01*
X175712Y92350D01*
X175607Y92300D01*
X175594Y92288D01*
X175579Y92280D01*
X175498Y92198D01*
X175413Y92118D01*
X175404Y92103D01*
X175392Y92091D01*
X175338Y91988D01*
X175281Y91888D01*
X175277Y91871D01*
X175269Y91855D01*
X175248Y91741D01*
X175223Y91628D01*
X175225Y91611D01*
X175221Y91594D01*
X175235Y91479D01*
X175245Y91363D01*
X175251Y91347D01*
X175253Y91330D01*
X175301Y91224D01*
X175344Y91116D01*
X175355Y91103D01*
X175362Y91087D01*
X175438Y91000D01*
X175511Y90910D01*
X175526Y90901D01*
X175537Y90888D01*
X175574Y90868D01*
X175732Y90763D01*
X175809Y90746D01*
X175879Y90709D01*
X176447Y90557D01*
X177280Y90076D01*
X177960Y89396D01*
X178441Y88563D01*
X178690Y87635D01*
X178690Y85597D01*
X172593Y85597D01*
X172492Y85582D01*
X172389Y85573D01*
X172361Y85562D01*
X172330Y85557D01*
X172238Y85513D01*
X172143Y85474D01*
X172119Y85455D01*
X172091Y85442D01*
X172016Y85372D01*
X171936Y85307D01*
X171919Y85281D01*
X171897Y85260D01*
X171846Y85171D01*
X171789Y85086D01*
X171784Y85062D01*
X171765Y85029D01*
X171707Y84770D01*
X171710Y84732D01*
X171705Y84709D01*
X171705Y83819D01*
X171703Y83819D01*
X171703Y84709D01*
X171688Y84810D01*
X171679Y84913D01*
X171668Y84941D01*
X171663Y84972D01*
X171619Y85064D01*
X171580Y85159D01*
X171561Y85183D01*
X171548Y85211D01*
X171478Y85286D01*
X171413Y85366D01*
X171387Y85383D01*
X171366Y85405D01*
X171277Y85456D01*
X171192Y85513D01*
X171168Y85518D01*
X171135Y85537D01*
X170876Y85595D01*
X170838Y85592D01*
X170815Y85597D01*
X164718Y85597D01*
X164718Y87635D01*
X164967Y88563D01*
X165448Y89396D01*
X166128Y90076D01*
X166961Y90557D01*
X167529Y90709D01*
X167545Y90716D01*
X167562Y90719D01*
X167666Y90769D01*
X167772Y90815D01*
X167785Y90827D01*
X167801Y90834D01*
X167886Y90914D01*
X167973Y90989D01*
X167982Y91004D01*
X167995Y91016D01*
X168053Y91116D01*
X168114Y91215D01*
X168119Y91231D01*
X168127Y91246D01*
X168152Y91360D01*
X168182Y91472D01*
X168181Y91489D01*
X168185Y91506D01*
X168175Y91621D01*
X168171Y91737D01*
X168165Y91754D01*
X168163Y91771D01*
X168120Y91878D01*
X168081Y91988D01*
X168071Y92001D01*
X168064Y92018D01*
X167991Y92108D01*
X167922Y92200D01*
X167908Y92210D01*
X167897Y92224D01*
X167800Y92288D01*
X167706Y92356D01*
X167690Y92362D01*
X167676Y92371D01*
X167635Y92380D01*
X167455Y92441D01*
X167376Y92438D01*
X167299Y92455D01*
X157561Y92455D01*
X157541Y92452D01*
X157520Y92454D01*
X157409Y92432D01*
X157298Y92415D01*
X157280Y92406D01*
X157259Y92402D01*
X157220Y92378D01*
X157059Y92300D01*
X156977Y92223D01*
X156933Y92195D01*
X156298Y91560D01*
X156268Y91519D01*
X156230Y91483D01*
X156189Y91412D01*
X156140Y91346D01*
X156123Y91297D01*
X156098Y91253D01*
X156080Y91173D01*
X156053Y91095D01*
X156051Y91043D01*
X156040Y90993D01*
X156047Y90911D01*
X156044Y90829D01*
X156057Y90780D01*
X156062Y90728D01*
X156092Y90652D01*
X156114Y90573D01*
X156141Y90529D01*
X156161Y90481D01*
X156212Y90418D01*
X156256Y90349D01*
X156296Y90315D01*
X156328Y90275D01*
X156397Y90230D01*
X156459Y90177D01*
X156506Y90156D01*
X156549Y90128D01*
X156600Y90116D01*
X156703Y90072D01*
X156882Y90054D01*
X156926Y90044D01*
X160995Y90044D01*
X162688Y88351D01*
X162688Y79289D01*
X160995Y77596D01*
X151933Y77596D01*
X150240Y79289D01*
X150240Y81361D01*
X150225Y81463D01*
X150217Y81565D01*
X150205Y81593D01*
X150200Y81624D01*
X150156Y81716D01*
X150118Y81812D01*
X150098Y81835D01*
X150085Y81863D01*
X150015Y81938D01*
X149950Y82018D01*
X149924Y82035D01*
X149903Y82057D01*
X149814Y82108D01*
X149729Y82165D01*
X149705Y82171D01*
X149673Y82189D01*
X149413Y82247D01*
X149375Y82244D01*
X149352Y82249D01*
X145321Y82249D01*
X143569Y84001D01*
X143528Y84032D01*
X143492Y84069D01*
X143421Y84110D01*
X143355Y84159D01*
X143306Y84176D01*
X143262Y84201D01*
X143182Y84219D01*
X143104Y84246D01*
X143052Y84248D01*
X143002Y84259D01*
X142920Y84252D01*
X142838Y84255D01*
X142789Y84242D01*
X142737Y84237D01*
X142661Y84207D01*
X142582Y84185D01*
X142538Y84158D01*
X142490Y84138D01*
X142427Y84087D01*
X142358Y84043D01*
X142324Y84003D01*
X142284Y83971D01*
X142239Y83902D01*
X142186Y83840D01*
X142165Y83793D01*
X142137Y83750D01*
X142125Y83699D01*
X142081Y83596D01*
X142063Y83417D01*
X142053Y83373D01*
X142053Y80339D01*
X141011Y79297D01*
X135457Y79297D01*
X135355Y79282D01*
X135253Y79274D01*
X135225Y79262D01*
X135194Y79257D01*
X135102Y79213D01*
X135006Y79175D01*
X134983Y79155D01*
X134955Y79142D01*
X134880Y79072D01*
X134800Y79007D01*
X134783Y78981D01*
X134761Y78960D01*
X134710Y78871D01*
X134653Y78786D01*
X134647Y78762D01*
X134629Y78730D01*
X134571Y78470D01*
X134574Y78432D01*
X134569Y78409D01*
X134569Y76508D01*
X134572Y76487D01*
X134570Y76466D01*
X134592Y76356D01*
X134609Y76245D01*
X134618Y76226D01*
X134622Y76205D01*
X134646Y76167D01*
X134724Y76005D01*
X134801Y75923D01*
X134829Y75879D01*
X138311Y72397D01*
X138328Y72384D01*
X138342Y72368D01*
X138435Y72306D01*
X138525Y72239D01*
X138545Y72232D01*
X138563Y72221D01*
X138607Y72211D01*
X138776Y72152D01*
X138889Y72148D01*
X138940Y72137D01*
X142921Y72137D01*
X142941Y72140D01*
X142962Y72138D01*
X143073Y72160D01*
X143184Y72177D01*
X143202Y72186D01*
X143223Y72190D01*
X143262Y72214D01*
X143423Y72292D01*
X143505Y72369D01*
X143549Y72397D01*
X145321Y74169D01*
X149326Y74169D01*
X149382Y74128D01*
X149461Y74061D01*
X149489Y74049D01*
X149514Y74031D01*
X149611Y73997D01*
X149705Y73957D01*
X149736Y73953D01*
X149765Y73943D01*
X149867Y73940D01*
X149969Y73929D01*
X150000Y73935D01*
X150030Y73934D01*
X150129Y73961D01*
X150230Y73981D01*
X150250Y73994D01*
X150287Y74004D01*
X150511Y74147D01*
X150536Y74176D01*
X150556Y74188D01*
X151933Y75566D01*
X160995Y75566D01*
X162688Y73873D01*
X162688Y64811D01*
X160995Y63118D01*
X151933Y63118D01*
X150556Y64496D01*
X150473Y64557D01*
X150395Y64623D01*
X150367Y64635D01*
X150342Y64653D01*
X150245Y64687D01*
X150150Y64727D01*
X150120Y64731D01*
X150091Y64741D01*
X149988Y64744D01*
X149886Y64755D01*
X149856Y64749D01*
X149825Y64750D01*
X149726Y64723D01*
X149625Y64703D01*
X149605Y64690D01*
X149569Y64680D01*
X149344Y64537D01*
X149326Y64515D01*
X145321Y64515D01*
X143549Y66287D01*
X143532Y66300D01*
X143519Y66316D01*
X143425Y66378D01*
X143335Y66445D01*
X143315Y66452D01*
X143298Y66463D01*
X143253Y66473D01*
X143084Y66532D01*
X142971Y66536D01*
X142921Y66547D01*
X136256Y66547D01*
X129585Y73219D01*
X129569Y73230D01*
X129558Y73245D01*
X129532Y73262D01*
X129508Y73287D01*
X129437Y73328D01*
X129371Y73376D01*
X129348Y73384D01*
X129337Y73392D01*
X129317Y73397D01*
X129278Y73419D01*
X129198Y73437D01*
X129120Y73464D01*
X129068Y73465D01*
X129018Y73477D01*
X128973Y73473D01*
X128960Y73476D01*
X128957Y73476D01*
X128921Y73471D01*
X128854Y73473D01*
X128805Y73459D01*
X128753Y73455D01*
X128713Y73439D01*
X128694Y73436D01*
X128661Y73420D01*
X128598Y73403D01*
X128554Y73375D01*
X128506Y73356D01*
X128474Y73330D01*
X128455Y73320D01*
X128426Y73294D01*
X128374Y73260D01*
X128340Y73221D01*
X128300Y73188D01*
X128278Y73155D01*
X128261Y73139D01*
X128240Y73103D01*
X128202Y73058D01*
X128181Y73010D01*
X128153Y72967D01*
X128146Y72939D01*
X128129Y72908D01*
X128119Y72864D01*
X128097Y72813D01*
X128088Y72726D01*
X128071Y72649D01*
X128074Y72613D01*
X128069Y72591D01*
X128069Y52216D01*
X95671Y19818D01*
X95634Y19768D01*
X95590Y19725D01*
X95556Y19662D01*
X95513Y19604D01*
X95493Y19546D01*
X95463Y19491D01*
X95449Y19421D01*
X95426Y19353D01*
X95424Y19291D01*
X95412Y19231D01*
X95420Y19183D01*
X95417Y19088D01*
X95473Y18881D01*
X95478Y18850D01*
X96299Y16870D01*
X96299Y13130D01*
X94868Y9676D01*
X92224Y7032D01*
X91638Y6790D01*
X91559Y6742D01*
X91476Y6702D01*
X91446Y6674D01*
X91411Y6652D01*
X91349Y6583D01*
X91282Y6520D01*
X91261Y6485D01*
X91234Y6454D01*
X91196Y6370D01*
X91150Y6290D01*
X91141Y6249D01*
X91124Y6212D01*
X91112Y6120D01*
X91092Y6030D01*
X91096Y5989D01*
X91090Y5948D01*
X91106Y5857D01*
X91114Y5765D01*
X91129Y5727D01*
X91136Y5686D01*
X91178Y5604D01*
X91213Y5518D01*
X91239Y5486D01*
X91258Y5450D01*
X91322Y5384D01*
X91380Y5312D01*
X91415Y5289D01*
X91443Y5260D01*
X91525Y5216D01*
X91602Y5165D01*
X91632Y5158D01*
X91677Y5133D01*
X91938Y5082D01*
X91958Y5085D01*
X91978Y5081D01*
X107222Y5081D01*
X107313Y5095D01*
X107405Y5100D01*
X107444Y5114D01*
X107484Y5121D01*
X107567Y5161D01*
X107654Y5193D01*
X107687Y5218D01*
X107724Y5236D01*
X107791Y5299D01*
X107864Y5356D01*
X107888Y5389D01*
X107918Y5418D01*
X107964Y5498D01*
X108017Y5573D01*
X108030Y5613D01*
X108050Y5648D01*
X108070Y5739D01*
X108098Y5826D01*
X108099Y5868D01*
X108108Y5908D01*
X108100Y6000D01*
X108101Y6092D01*
X108090Y6132D01*
X108086Y6173D01*
X108052Y6258D01*
X108025Y6347D01*
X108003Y6381D01*
X107987Y6420D01*
X107929Y6491D01*
X107878Y6568D01*
X107852Y6586D01*
X107820Y6626D01*
X107598Y6773D01*
X107578Y6778D01*
X107562Y6790D01*
X106976Y7032D01*
X104332Y9676D01*
X102901Y13130D01*
X102901Y16870D01*
X104332Y20324D01*
X106976Y22968D01*
X110430Y24399D01*
X114170Y24399D01*
X117624Y22968D01*
X120268Y20324D01*
X121699Y16870D01*
X121699Y13130D01*
X120268Y9676D01*
X117624Y7032D01*
X117038Y6790D01*
X116959Y6742D01*
X116876Y6702D01*
X116846Y6674D01*
X116811Y6652D01*
X116749Y6583D01*
X116682Y6520D01*
X116661Y6485D01*
X116634Y6454D01*
X116596Y6370D01*
X116550Y6290D01*
X116541Y6249D01*
X116524Y6212D01*
X116512Y6120D01*
X116492Y6030D01*
X116496Y5989D01*
X116490Y5948D01*
X116506Y5857D01*
X116514Y5765D01*
X116529Y5727D01*
X116536Y5686D01*
X116578Y5604D01*
X116613Y5518D01*
X116639Y5486D01*
X116658Y5450D01*
X116722Y5384D01*
X116780Y5312D01*
X116815Y5289D01*
X116843Y5260D01*
X116925Y5216D01*
X117002Y5165D01*
X117032Y5158D01*
X117077Y5133D01*
X117338Y5082D01*
X117358Y5085D01*
X117378Y5081D01*
X131333Y5081D01*
X131452Y5099D01*
X131572Y5114D01*
X131583Y5119D01*
X131595Y5121D01*
X131704Y5173D01*
X131814Y5223D01*
X131824Y5231D01*
X131835Y5236D01*
X131923Y5319D01*
X132014Y5399D01*
X132020Y5409D01*
X132029Y5418D01*
X132089Y5522D01*
X132152Y5626D01*
X132155Y5638D01*
X132161Y5648D01*
X132187Y5766D01*
X132217Y5884D01*
X132216Y5896D01*
X132219Y5908D01*
X132209Y6029D01*
X132202Y6149D01*
X132198Y6161D01*
X132197Y6173D01*
X132152Y6285D01*
X132110Y6398D01*
X132104Y6406D01*
X132098Y6420D01*
X131930Y6626D01*
X131879Y6660D01*
X131855Y6688D01*
X131081Y7250D01*
X129950Y8381D01*
X129010Y9675D01*
X128284Y11100D01*
X127789Y12621D01*
X127694Y13223D01*
X136811Y13223D01*
X136912Y13238D01*
X137015Y13246D01*
X137043Y13258D01*
X137074Y13263D01*
X137166Y13307D01*
X137261Y13345D01*
X137285Y13365D01*
X137313Y13378D01*
X137388Y13448D01*
X137468Y13513D01*
X137485Y13539D01*
X137507Y13560D01*
X137558Y13649D01*
X137615Y13734D01*
X137620Y13758D01*
X137639Y13790D01*
X137697Y14050D01*
X137694Y14088D01*
X137699Y14111D01*
X137699Y15001D01*
X137701Y15001D01*
X137701Y14111D01*
X137716Y14009D01*
X137725Y13907D01*
X137736Y13879D01*
X137741Y13848D01*
X137785Y13756D01*
X137824Y13660D01*
X137843Y13637D01*
X137856Y13609D01*
X137926Y13534D01*
X137991Y13454D01*
X138017Y13437D01*
X138038Y13415D01*
X138127Y13364D01*
X138212Y13307D01*
X138236Y13301D01*
X138269Y13283D01*
X138528Y13225D01*
X138566Y13228D01*
X138589Y13223D01*
X147706Y13223D01*
X147611Y12621D01*
X147116Y11100D01*
X146390Y9675D01*
X145450Y8381D01*
X144319Y7250D01*
X143545Y6688D01*
X143459Y6603D01*
X143371Y6520D01*
X143365Y6510D01*
X143356Y6501D01*
X143299Y6394D01*
X143239Y6290D01*
X143236Y6277D01*
X143231Y6267D01*
X143208Y6148D01*
X143181Y6030D01*
X143182Y6018D01*
X143180Y6006D01*
X143193Y5885D01*
X143203Y5765D01*
X143208Y5754D01*
X143209Y5741D01*
X143257Y5630D01*
X143302Y5518D01*
X143310Y5509D01*
X143315Y5498D01*
X143393Y5406D01*
X143470Y5312D01*
X143480Y5305D01*
X143488Y5296D01*
X143590Y5232D01*
X143691Y5165D01*
X143700Y5162D01*
X143713Y5155D01*
X143970Y5086D01*
X144032Y5089D01*
X144067Y5081D01*
X158022Y5081D01*
X158113Y5095D01*
X158205Y5100D01*
X158244Y5114D01*
X158284Y5121D01*
X158367Y5161D01*
X158454Y5193D01*
X158487Y5218D01*
X158524Y5236D01*
X158591Y5299D01*
X158664Y5356D01*
X158688Y5389D01*
X158718Y5418D01*
X158764Y5498D01*
X158817Y5573D01*
X158830Y5613D01*
X158850Y5648D01*
X158870Y5739D01*
X158898Y5826D01*
X158899Y5868D01*
X158908Y5908D01*
X158900Y6000D01*
X158901Y6092D01*
X158890Y6132D01*
X158886Y6173D01*
X158852Y6258D01*
X158825Y6347D01*
X158803Y6381D01*
X158787Y6420D01*
X158729Y6491D01*
X158678Y6568D01*
X158652Y6586D01*
X158620Y6626D01*
X158398Y6773D01*
X158378Y6778D01*
X158362Y6790D01*
X157776Y7032D01*
X155132Y9676D01*
X153701Y13130D01*
X153701Y16870D01*
X155132Y20324D01*
X157776Y22968D01*
X161230Y24399D01*
X164970Y24399D01*
X168424Y22968D01*
X171068Y20324D01*
X172499Y16870D01*
X172499Y13130D01*
X171068Y9676D01*
X168424Y7032D01*
X167838Y6790D01*
X167759Y6742D01*
X167676Y6702D01*
X167646Y6674D01*
X167611Y6652D01*
X167549Y6583D01*
X167482Y6520D01*
X167461Y6485D01*
X167434Y6454D01*
X167396Y6370D01*
X167350Y6290D01*
X167341Y6249D01*
X167324Y6212D01*
X167312Y6120D01*
X167292Y6030D01*
X167296Y5989D01*
X167290Y5948D01*
X167306Y5857D01*
X167314Y5765D01*
X167329Y5727D01*
X167336Y5686D01*
X167378Y5604D01*
X167413Y5518D01*
X167439Y5486D01*
X167458Y5450D01*
X167522Y5384D01*
X167580Y5312D01*
X167615Y5289D01*
X167643Y5260D01*
X167725Y5216D01*
X167802Y5165D01*
X167832Y5158D01*
X167877Y5133D01*
X168138Y5082D01*
X168158Y5085D01*
X168178Y5081D01*
X183422Y5081D01*
X183513Y5095D01*
X183605Y5100D01*
X183644Y5114D01*
X183684Y5121D01*
X183767Y5161D01*
X183854Y5193D01*
X183887Y5218D01*
X183924Y5236D01*
X183991Y5299D01*
X184064Y5356D01*
X184088Y5389D01*
X184118Y5418D01*
X184164Y5498D01*
X184217Y5573D01*
X184230Y5613D01*
X184250Y5648D01*
X184270Y5739D01*
X184298Y5826D01*
X184299Y5868D01*
X184308Y5908D01*
X184300Y6000D01*
X184301Y6092D01*
X184290Y6132D01*
X184286Y6173D01*
X184252Y6258D01*
X184225Y6347D01*
X184203Y6381D01*
X184187Y6420D01*
X184129Y6491D01*
X184078Y6568D01*
X184052Y6586D01*
X184020Y6626D01*
X183798Y6773D01*
X183778Y6778D01*
X183762Y6790D01*
X183176Y7032D01*
X180532Y9676D01*
X179101Y13130D01*
X179101Y16870D01*
X180532Y20324D01*
X183176Y22968D01*
X186630Y24399D01*
X190370Y24399D01*
X193824Y22968D01*
X196468Y20324D01*
X197899Y16870D01*
X197899Y13130D01*
X196468Y9676D01*
X193824Y7032D01*
X193238Y6790D01*
X193159Y6742D01*
X193076Y6702D01*
X193046Y6674D01*
X193011Y6652D01*
X192949Y6583D01*
X192882Y6520D01*
X192861Y6485D01*
X192834Y6454D01*
X192796Y6370D01*
X192750Y6290D01*
X192741Y6249D01*
X192724Y6212D01*
X192712Y6120D01*
X192692Y6030D01*
X192696Y5989D01*
X192690Y5948D01*
X192706Y5857D01*
X192714Y5765D01*
X192729Y5727D01*
X192736Y5686D01*
X192778Y5604D01*
X192813Y5518D01*
X192839Y5486D01*
X192858Y5450D01*
X192922Y5384D01*
X192980Y5312D01*
X193015Y5289D01*
X193043Y5260D01*
X193125Y5216D01*
X193202Y5165D01*
X193232Y5158D01*
X193277Y5133D01*
X193538Y5082D01*
X193558Y5085D01*
X193578Y5081D01*
X219350Y5081D01*
X219442Y5095D01*
X219534Y5100D01*
X219573Y5114D01*
X219613Y5121D01*
X219696Y5161D01*
X219783Y5193D01*
X219815Y5218D01*
X219853Y5236D01*
X219920Y5299D01*
X219993Y5356D01*
X220017Y5390D01*
X220047Y5418D01*
X220093Y5498D01*
X220146Y5573D01*
X220158Y5613D01*
X220179Y5648D01*
X220199Y5738D01*
X220227Y5826D01*
X220228Y5868D01*
X220237Y5908D01*
X220229Y6000D01*
X220230Y6092D01*
X220218Y6132D01*
X220215Y6173D01*
X220181Y6258D01*
X220154Y6347D01*
X220131Y6381D01*
X220116Y6420D01*
X220058Y6491D01*
X220006Y6568D01*
X219981Y6586D01*
X219948Y6626D01*
X219727Y6773D01*
X219707Y6778D01*
X219690Y6790D01*
X216825Y7976D01*
X211176Y13625D01*
X208119Y21006D01*
X208119Y28994D01*
X211176Y36375D01*
X216825Y42024D01*
X224206Y45081D01*
X232194Y45081D01*
X239575Y42024D01*
X243403Y38195D01*
X243415Y38187D01*
X243422Y38177D01*
X243450Y38159D01*
X243480Y38127D01*
X243551Y38086D01*
X243617Y38038D01*
X243666Y38021D01*
X243710Y37995D01*
X243790Y37977D01*
X243868Y37950D01*
X243920Y37949D01*
X243970Y37937D01*
X244052Y37944D01*
X244134Y37941D01*
X244183Y37955D01*
X244235Y37959D01*
X244311Y37990D01*
X244390Y38011D01*
X244434Y38039D01*
X244482Y38058D01*
X244545Y38110D01*
X244614Y38154D01*
X244648Y38193D01*
X244688Y38226D01*
X244724Y38279D01*
X244727Y38283D01*
X244734Y38295D01*
X244786Y38356D01*
X244807Y38404D01*
X244835Y38447D01*
X244844Y38488D01*
X244859Y38514D01*
X244866Y38542D01*
X244891Y38601D01*
X244901Y38702D01*
X244917Y38773D01*
X244915Y38803D01*
X244919Y38824D01*
X244919Y64425D01*
X244904Y64527D01*
X244896Y64629D01*
X244884Y64657D01*
X244879Y64688D01*
X244835Y64780D01*
X244797Y64876D01*
X244777Y64899D01*
X244764Y64927D01*
X244694Y65002D01*
X244629Y65082D01*
X244603Y65099D01*
X244582Y65121D01*
X244493Y65172D01*
X244408Y65229D01*
X244384Y65235D01*
X244352Y65253D01*
X244092Y65311D01*
X244054Y65308D01*
X244031Y65313D01*
X236527Y65313D01*
X236527Y72965D01*
X236512Y73066D01*
X236503Y73169D01*
X236492Y73197D01*
X236487Y73228D01*
X236443Y73320D01*
X236404Y73415D01*
X236385Y73439D01*
X236372Y73467D01*
X236302Y73542D01*
X236237Y73622D01*
X236211Y73639D01*
X236190Y73661D01*
X236101Y73712D01*
X236016Y73769D01*
X235992Y73774D01*
X235959Y73793D01*
X235700Y73851D01*
X235662Y73848D01*
X235639Y73853D01*
X234749Y73853D01*
X234749Y73855D01*
X235639Y73855D01*
X235740Y73870D01*
X235843Y73879D01*
X235871Y73890D01*
X235902Y73895D01*
X235994Y73939D01*
X236089Y73978D01*
X236113Y73997D01*
X236141Y74010D01*
X236216Y74080D01*
X236296Y74145D01*
X236313Y74171D01*
X236335Y74192D01*
X236386Y74281D01*
X236443Y74366D01*
X236448Y74390D01*
X236467Y74423D01*
X236525Y74682D01*
X236522Y74720D01*
X236527Y74743D01*
X236527Y82395D01*
X244031Y82395D01*
X244133Y82410D01*
X244235Y82418D01*
X244263Y82430D01*
X244294Y82435D01*
X244386Y82479D01*
X244482Y82517D01*
X244505Y82537D01*
X244533Y82550D01*
X244608Y82620D01*
X244688Y82685D01*
X244705Y82711D01*
X244727Y82732D01*
X244778Y82821D01*
X244835Y82906D01*
X244841Y82930D01*
X244859Y82962D01*
X244917Y83222D01*
X244914Y83260D01*
X244919Y83283D01*
X244919Y120425D01*
X244904Y120527D01*
X244896Y120629D01*
X244884Y120657D01*
X244879Y120688D01*
X244835Y120780D01*
X244797Y120876D01*
X244777Y120899D01*
X244764Y120927D01*
X244694Y121002D01*
X244629Y121082D01*
X244603Y121099D01*
X244582Y121121D01*
X244493Y121172D01*
X244408Y121229D01*
X244384Y121235D01*
X244352Y121253D01*
X244092Y121311D01*
X244054Y121308D01*
X244031Y121313D01*
X236527Y121313D01*
X236527Y128965D01*
X236512Y129066D01*
X236503Y129169D01*
X236492Y129197D01*
X236487Y129228D01*
X236443Y129320D01*
X236404Y129415D01*
X236385Y129439D01*
X236372Y129467D01*
X236302Y129542D01*
X236237Y129622D01*
X236211Y129639D01*
X236190Y129661D01*
X236101Y129712D01*
X236016Y129769D01*
X235992Y129774D01*
X235959Y129793D01*
X235700Y129851D01*
X235662Y129848D01*
X235639Y129853D01*
X234749Y129853D01*
X234749Y129855D01*
X235639Y129855D01*
X235740Y129870D01*
X235843Y129879D01*
X235871Y129890D01*
X235902Y129895D01*
X235994Y129939D01*
X236089Y129978D01*
X236113Y129997D01*
X236141Y130010D01*
X236216Y130080D01*
X236296Y130145D01*
X236313Y130171D01*
X236335Y130192D01*
X236386Y130281D01*
X236443Y130366D01*
X236448Y130390D01*
X236467Y130423D01*
X236525Y130682D01*
X236522Y130720D01*
X236527Y130743D01*
X236527Y138395D01*
X244031Y138395D01*
X244133Y138410D01*
X244235Y138418D01*
X244263Y138430D01*
X244294Y138435D01*
X244386Y138479D01*
X244482Y138517D01*
X244505Y138537D01*
X244533Y138550D01*
X244608Y138620D01*
X244688Y138685D01*
X244705Y138711D01*
X244727Y138732D01*
X244778Y138821D01*
X244835Y138906D01*
X244841Y138930D01*
X244859Y138962D01*
X244917Y139222D01*
X244914Y139260D01*
X244919Y139283D01*
X244919Y214376D01*
X244912Y214427D01*
X244913Y214479D01*
X244892Y214558D01*
X244879Y214639D01*
X244857Y214686D01*
X244843Y214736D01*
X244799Y214805D01*
X244764Y214879D01*
X244729Y214916D01*
X244701Y214960D01*
X244638Y215013D01*
X244582Y215073D01*
X244538Y215098D01*
X244498Y215132D01*
X244423Y215164D01*
X244352Y215205D01*
X244301Y215216D01*
X244254Y215236D01*
X244172Y215245D01*
X244092Y215263D01*
X244041Y215258D01*
X243989Y215264D01*
X243909Y215248D01*
X243827Y215241D01*
X243779Y215222D01*
X243729Y215212D01*
X243685Y215184D01*
X243580Y215142D01*
X243441Y215029D01*
X243403Y215005D01*
X239575Y211176D01*
X232194Y208119D01*
X224206Y208119D01*
X216825Y211176D01*
X211176Y216825D01*
X208119Y224206D01*
X208119Y232194D01*
X211176Y239575D01*
X216825Y245224D01*
X219690Y246410D01*
X219769Y246458D01*
X219853Y246498D01*
X219883Y246526D01*
X219918Y246548D01*
X219979Y246617D01*
X220047Y246680D01*
X220067Y246716D01*
X220095Y246746D01*
X220133Y246830D01*
X220179Y246910D01*
X220188Y246951D01*
X220205Y246988D01*
X220216Y247080D01*
X220237Y247170D01*
X220233Y247211D01*
X220238Y247252D01*
X220222Y247343D01*
X220215Y247435D01*
X220200Y247473D01*
X220192Y247514D01*
X220150Y247596D01*
X220116Y247682D01*
X220090Y247714D01*
X220071Y247750D01*
X220007Y247816D01*
X219948Y247888D01*
X219914Y247911D01*
X219885Y247940D01*
X219804Y247984D01*
X219727Y248035D01*
X219697Y248042D01*
X219651Y248067D01*
X219391Y248118D01*
X219370Y248115D01*
X219350Y248119D01*
X33850Y248119D01*
X33758Y248105D01*
X33666Y248100D01*
X33627Y248086D01*
X33587Y248079D01*
X33504Y248039D01*
X33417Y248007D01*
X33385Y247982D01*
X33347Y247964D01*
X33280Y247901D01*
X33207Y247844D01*
X33183Y247810D01*
X33153Y247782D01*
X33107Y247702D01*
X33054Y247627D01*
X33042Y247587D01*
X33021Y247552D01*
X33001Y247462D01*
X32973Y247374D01*
X32972Y247332D01*
X32963Y247292D01*
X32971Y247200D01*
X32970Y247108D01*
X32982Y247068D01*
X32985Y247027D01*
X33019Y246942D01*
X33046Y246853D01*
X33069Y246819D01*
X33084Y246780D01*
X33142Y246709D01*
X33194Y246632D01*
X33219Y246614D01*
X33252Y246574D01*
X33473Y246427D01*
X33493Y246422D01*
X33510Y246410D01*
X36375Y245224D01*
X42024Y239575D01*
X45081Y232194D01*
X45081Y224206D01*
X42024Y216825D01*
X36375Y211176D01*
X28994Y208119D01*
X21006Y208119D01*
X13625Y211176D01*
X7976Y216825D01*
X6790Y219690D01*
X6742Y219769D01*
X6702Y219853D01*
X6674Y219883D01*
X6652Y219918D01*
X6583Y219979D01*
X6520Y220047D01*
X6484Y220067D01*
X6454Y220095D01*
X6370Y220133D01*
X6290Y220179D01*
X6249Y220188D01*
X6212Y220205D01*
X6120Y220216D01*
X6030Y220237D01*
X5989Y220233D01*
X5948Y220238D01*
X5857Y220222D01*
X5765Y220215D01*
X5727Y220200D01*
X5686Y220192D01*
X5604Y220150D01*
X5518Y220116D01*
X5486Y220090D01*
X5450Y220071D01*
X5384Y220007D01*
X5312Y219948D01*
X5289Y219914D01*
X5260Y219885D01*
X5216Y219804D01*
X5165Y219727D01*
X5158Y219697D01*
X5133Y219651D01*
X5082Y219391D01*
X5085Y219370D01*
X5081Y219350D01*
X5081Y139283D01*
X5096Y139181D01*
X5104Y139079D01*
X5116Y139051D01*
X5121Y139020D01*
X5165Y138928D01*
X5203Y138832D01*
X5223Y138809D01*
X5236Y138781D01*
X5306Y138706D01*
X5371Y138626D01*
X5397Y138609D01*
X5418Y138587D01*
X5507Y138536D01*
X5592Y138479D01*
X5616Y138473D01*
X5648Y138455D01*
X5908Y138397D01*
X5946Y138400D01*
X5969Y138395D01*
X13473Y138395D01*
X13473Y130743D01*
X13488Y130642D01*
X13497Y130539D01*
X13508Y130511D01*
X13513Y130480D01*
X13557Y130388D01*
X13596Y130293D01*
X13615Y130269D01*
X13628Y130241D01*
X13698Y130166D01*
X13763Y130086D01*
X13789Y130069D01*
X13810Y130047D01*
X13899Y129996D01*
X13984Y129939D01*
X14008Y129934D01*
X14040Y129915D01*
X14300Y129857D01*
X14338Y129860D01*
X14361Y129855D01*
X15251Y129855D01*
X15251Y129853D01*
X14361Y129853D01*
X14260Y129838D01*
X14157Y129829D01*
X14129Y129818D01*
X14098Y129813D01*
X14006Y129769D01*
X13911Y129730D01*
X13887Y129711D01*
X13859Y129698D01*
X13784Y129628D01*
X13704Y129563D01*
X13687Y129537D01*
X13665Y129516D01*
X13614Y129427D01*
X13557Y129342D01*
X13551Y129318D01*
X13533Y129285D01*
X13475Y129026D01*
X13478Y128988D01*
X13473Y128965D01*
X13473Y121313D01*
X5969Y121313D01*
X5867Y121298D01*
X5765Y121290D01*
X5737Y121278D01*
X5706Y121273D01*
X5614Y121229D01*
X5518Y121191D01*
X5495Y121171D01*
X5467Y121158D01*
X5392Y121088D01*
X5312Y121023D01*
X5295Y120997D01*
X5273Y120976D01*
X5222Y120887D01*
X5165Y120802D01*
X5159Y120778D01*
X5141Y120746D01*
X5083Y120486D01*
X5086Y120448D01*
X5081Y120425D01*
X5081Y83283D01*
X5096Y83181D01*
X5104Y83079D01*
X5116Y83051D01*
X5121Y83020D01*
X5165Y82928D01*
X5203Y82832D01*
X5223Y82809D01*
X5236Y82781D01*
X5306Y82706D01*
X5371Y82626D01*
X5397Y82609D01*
X5418Y82587D01*
X5507Y82536D01*
X5592Y82479D01*
X5616Y82473D01*
X5648Y82455D01*
X5908Y82397D01*
X5946Y82400D01*
X5969Y82395D01*
X13473Y82395D01*
X13473Y74743D01*
X13488Y74642D01*
X13497Y74539D01*
X13508Y74511D01*
X13513Y74480D01*
X13557Y74388D01*
X13596Y74293D01*
X13615Y74269D01*
X13628Y74241D01*
X13698Y74166D01*
X13763Y74086D01*
X13789Y74069D01*
X13810Y74047D01*
X13899Y73996D01*
X13984Y73939D01*
X14008Y73934D01*
X14040Y73915D01*
X14300Y73857D01*
X14338Y73860D01*
X14361Y73855D01*
X15251Y73855D01*
X15251Y73853D01*
X14361Y73853D01*
X14260Y73838D01*
X14157Y73829D01*
X14129Y73818D01*
X14098Y73813D01*
X14006Y73769D01*
X13911Y73730D01*
X13887Y73711D01*
X13859Y73698D01*
X13784Y73628D01*
X13704Y73563D01*
X13687Y73537D01*
X13665Y73516D01*
X13614Y73427D01*
X13557Y73342D01*
X13551Y73318D01*
X13533Y73285D01*
X13475Y73026D01*
X13478Y72988D01*
X13473Y72965D01*
X13473Y65313D01*
X5969Y65313D01*
X5867Y65298D01*
X5765Y65290D01*
X5737Y65278D01*
X5706Y65273D01*
X5614Y65229D01*
X5518Y65191D01*
X5495Y65171D01*
X5467Y65158D01*
X5392Y65088D01*
X5312Y65023D01*
X5295Y64997D01*
X5273Y64976D01*
X5222Y64887D01*
X5165Y64802D01*
X5159Y64778D01*
X5141Y64746D01*
X5083Y64486D01*
X5086Y64448D01*
X5081Y64425D01*
X5081Y33850D01*
X5095Y33758D01*
X5100Y33666D01*
X5114Y33627D01*
X5121Y33587D01*
X5161Y33504D01*
X5193Y33417D01*
X5218Y33385D01*
X5236Y33347D01*
X5299Y33280D01*
X5356Y33207D01*
X5390Y33183D01*
X5418Y33153D01*
X5498Y33107D01*
X5573Y33054D01*
X5613Y33042D01*
X5648Y33021D01*
X5738Y33001D01*
X5826Y32973D01*
X5868Y32972D01*
X5908Y32963D01*
X6000Y32971D01*
X6092Y32970D01*
X6132Y32982D01*
X6173Y32985D01*
X6258Y33019D01*
X6347Y33046D01*
X6381Y33069D01*
X6420Y33084D01*
X6491Y33142D01*
X6568Y33194D01*
X6586Y33219D01*
X6626Y33252D01*
X6773Y33473D01*
X6778Y33493D01*
X6790Y33510D01*
X7976Y36375D01*
X13625Y42024D01*
X21006Y45081D01*
X28994Y45081D01*
X36375Y42024D01*
X42024Y36375D01*
X45081Y28994D01*
X45081Y21006D01*
X42024Y13625D01*
X36375Y7976D01*
X33510Y6790D01*
X33431Y6742D01*
X33347Y6702D01*
X33317Y6674D01*
X33282Y6652D01*
X33221Y6583D01*
X33153Y6520D01*
X33133Y6484D01*
X33105Y6454D01*
X33067Y6370D01*
X33021Y6290D01*
X33012Y6249D01*
X32995Y6212D01*
X32984Y6120D01*
X32963Y6030D01*
X32967Y5989D01*
X32962Y5948D01*
X32978Y5857D01*
X32985Y5765D01*
X33000Y5727D01*
X33008Y5686D01*
X33050Y5604D01*
X33084Y5518D01*
X33110Y5486D01*
X33129Y5450D01*
X33193Y5384D01*
X33252Y5312D01*
X33286Y5289D01*
X33315Y5260D01*
X33396Y5216D01*
X33473Y5165D01*
X33503Y5158D01*
X33549Y5133D01*
X33809Y5082D01*
X33830Y5085D01*
X33850Y5081D01*
X51519Y5081D01*
X51570Y5088D01*
G37*
G36*
X81913Y5095D02*
X81913Y5095D01*
X82005Y5100D01*
X82044Y5114D01*
X82084Y5121D01*
X82167Y5161D01*
X82254Y5193D01*
X82287Y5218D01*
X82324Y5236D01*
X82391Y5299D01*
X82464Y5356D01*
X82488Y5389D01*
X82518Y5418D01*
X82564Y5498D01*
X82617Y5573D01*
X82630Y5613D01*
X82650Y5648D01*
X82670Y5739D01*
X82698Y5826D01*
X82699Y5868D01*
X82708Y5908D01*
X82700Y6000D01*
X82701Y6092D01*
X82690Y6132D01*
X82686Y6173D01*
X82652Y6258D01*
X82625Y6347D01*
X82603Y6381D01*
X82587Y6420D01*
X82529Y6491D01*
X82478Y6568D01*
X82452Y6586D01*
X82420Y6626D01*
X82198Y6773D01*
X82178Y6778D01*
X82162Y6790D01*
X81576Y7032D01*
X78932Y9676D01*
X77501Y13130D01*
X77501Y16870D01*
X78932Y20324D01*
X81576Y22968D01*
X85030Y24399D01*
X88770Y24399D01*
X90750Y23578D01*
X90811Y23563D01*
X90868Y23539D01*
X90939Y23532D01*
X91008Y23514D01*
X91070Y23518D01*
X91132Y23512D01*
X91202Y23526D01*
X91274Y23530D01*
X91332Y23551D01*
X91393Y23564D01*
X91433Y23589D01*
X91523Y23623D01*
X91692Y23754D01*
X91718Y23771D01*
X122219Y54271D01*
X122232Y54288D01*
X122248Y54302D01*
X122310Y54395D01*
X122377Y54485D01*
X122384Y54505D01*
X122395Y54523D01*
X122405Y54567D01*
X122464Y54736D01*
X122468Y54849D01*
X122479Y54900D01*
X122479Y69883D01*
X122472Y69933D01*
X122473Y69985D01*
X122452Y70064D01*
X122439Y70145D01*
X122417Y70192D01*
X122403Y70242D01*
X122359Y70311D01*
X122324Y70385D01*
X122289Y70422D01*
X122261Y70466D01*
X122198Y70519D01*
X122142Y70579D01*
X122098Y70605D01*
X122058Y70638D01*
X121983Y70670D01*
X121912Y70711D01*
X121861Y70722D01*
X121814Y70742D01*
X121732Y70751D01*
X121652Y70769D01*
X121601Y70764D01*
X121549Y70770D01*
X121469Y70754D01*
X121387Y70747D01*
X121339Y70728D01*
X121289Y70718D01*
X121245Y70690D01*
X121140Y70648D01*
X121001Y70535D01*
X120963Y70511D01*
X71159Y20707D01*
X71146Y20690D01*
X71130Y20676D01*
X71068Y20583D01*
X71001Y20493D01*
X70994Y20473D01*
X70983Y20455D01*
X70973Y20411D01*
X70914Y20242D01*
X70910Y20129D01*
X70899Y20078D01*
X70899Y6643D01*
X70853Y6597D01*
X70822Y6556D01*
X70784Y6520D01*
X70743Y6449D01*
X70695Y6383D01*
X70678Y6334D01*
X70652Y6290D01*
X70634Y6210D01*
X70607Y6132D01*
X70606Y6080D01*
X70594Y6030D01*
X70601Y5948D01*
X70598Y5866D01*
X70612Y5817D01*
X70616Y5765D01*
X70647Y5689D01*
X70668Y5610D01*
X70696Y5566D01*
X70715Y5518D01*
X70767Y5455D01*
X70811Y5386D01*
X70850Y5352D01*
X70883Y5312D01*
X70951Y5267D01*
X71013Y5214D01*
X71061Y5193D01*
X71104Y5165D01*
X71154Y5153D01*
X71258Y5109D01*
X71436Y5091D01*
X71481Y5081D01*
X81822Y5081D01*
X81913Y5095D01*
G37*
%LPC*%
G36*
X78019Y62356D02*
X78019Y62356D01*
X76326Y64049D01*
X76326Y65403D01*
X76323Y65424D01*
X76325Y65445D01*
X76303Y65555D01*
X76286Y65666D01*
X76277Y65685D01*
X76273Y65706D01*
X76249Y65744D01*
X76171Y65906D01*
X76094Y65988D01*
X76066Y66032D01*
X71493Y70605D01*
X71476Y70618D01*
X71462Y70634D01*
X71369Y70696D01*
X71279Y70763D01*
X71259Y70770D01*
X71241Y70781D01*
X71197Y70791D01*
X71028Y70850D01*
X70915Y70854D01*
X70864Y70865D01*
X68359Y70865D01*
X65531Y73693D01*
X65531Y77691D01*
X68359Y80519D01*
X72357Y80519D01*
X75185Y77691D01*
X75185Y75186D01*
X75188Y75165D01*
X75186Y75144D01*
X75208Y75034D01*
X75225Y74923D01*
X75234Y74904D01*
X75238Y74883D01*
X75262Y74845D01*
X75340Y74683D01*
X75417Y74601D01*
X75445Y74557D01*
X75981Y74022D01*
X76063Y73961D01*
X76142Y73894D01*
X76170Y73882D01*
X76195Y73864D01*
X76292Y73830D01*
X76386Y73790D01*
X76417Y73787D01*
X76446Y73776D01*
X76548Y73773D01*
X76651Y73762D01*
X76681Y73768D01*
X76711Y73767D01*
X76810Y73794D01*
X76911Y73814D01*
X76931Y73827D01*
X76968Y73837D01*
X77192Y73980D01*
X77217Y74009D01*
X77237Y74022D01*
X78019Y74804D01*
X87081Y74804D01*
X88774Y73111D01*
X88774Y64049D01*
X87081Y62356D01*
X78019Y62356D01*
G37*
%LPD*%
G36*
X120335Y102874D02*
X120335Y102874D01*
X120356Y102872D01*
X120467Y102894D01*
X120578Y102911D01*
X120596Y102920D01*
X120617Y102924D01*
X120656Y102948D01*
X120817Y103026D01*
X120899Y103103D01*
X120943Y103131D01*
X121593Y103781D01*
X121623Y103822D01*
X121661Y103858D01*
X121702Y103929D01*
X121751Y103995D01*
X121768Y104044D01*
X121793Y104088D01*
X121811Y104168D01*
X121838Y104246D01*
X121840Y104298D01*
X121851Y104348D01*
X121844Y104430D01*
X121847Y104512D01*
X121834Y104561D01*
X121829Y104613D01*
X121799Y104689D01*
X121777Y104768D01*
X121750Y104812D01*
X121730Y104860D01*
X121679Y104923D01*
X121635Y104992D01*
X121595Y105026D01*
X121563Y105066D01*
X121494Y105111D01*
X121432Y105164D01*
X121385Y105185D01*
X121342Y105213D01*
X121291Y105225D01*
X121188Y105269D01*
X121009Y105287D01*
X120965Y105297D01*
X116037Y105297D01*
X114995Y106339D01*
X114995Y108885D01*
X114980Y108987D01*
X114972Y109089D01*
X114960Y109117D01*
X114955Y109148D01*
X114911Y109240D01*
X114873Y109336D01*
X114853Y109359D01*
X114840Y109387D01*
X114770Y109462D01*
X114705Y109542D01*
X114679Y109559D01*
X114658Y109581D01*
X114569Y109632D01*
X114484Y109689D01*
X114460Y109695D01*
X114428Y109713D01*
X114168Y109771D01*
X114130Y109768D01*
X114107Y109773D01*
X101202Y109773D01*
X99603Y111372D01*
X99586Y111385D01*
X99573Y111401D01*
X99479Y111463D01*
X99389Y111530D01*
X99369Y111537D01*
X99352Y111548D01*
X99307Y111558D01*
X99138Y111617D01*
X99025Y111621D01*
X98975Y111632D01*
X96605Y111632D01*
X96584Y111629D01*
X96563Y111631D01*
X96453Y111609D01*
X96342Y111592D01*
X96323Y111583D01*
X96303Y111579D01*
X96264Y111555D01*
X96103Y111477D01*
X96020Y111400D01*
X95977Y111372D01*
X94495Y109890D01*
X94482Y109873D01*
X94466Y109860D01*
X94404Y109766D01*
X94337Y109676D01*
X94330Y109656D01*
X94319Y109639D01*
X94309Y109594D01*
X94250Y109425D01*
X94246Y109312D01*
X94235Y109262D01*
X94235Y107475D01*
X91407Y104647D01*
X89620Y104647D01*
X89609Y104646D01*
X89597Y104647D01*
X89565Y104639D01*
X89357Y104607D01*
X89270Y104565D01*
X89223Y104553D01*
X89173Y104518D01*
X89118Y104492D01*
X89065Y104442D01*
X89005Y104400D01*
X88968Y104352D01*
X88923Y104310D01*
X88887Y104247D01*
X88843Y104190D01*
X88822Y104133D01*
X88792Y104080D01*
X88776Y104009D01*
X88750Y103941D01*
X88747Y103880D01*
X88734Y103820D01*
X88740Y103748D01*
X88736Y103675D01*
X88750Y103616D01*
X88755Y103555D01*
X88782Y103488D01*
X88800Y103417D01*
X88832Y103365D01*
X88854Y103308D01*
X88900Y103252D01*
X88938Y103190D01*
X88983Y103150D01*
X89022Y103102D01*
X89082Y103062D01*
X89137Y103014D01*
X89192Y102989D01*
X89243Y102955D01*
X89291Y102944D01*
X89379Y102904D01*
X89588Y102878D01*
X89620Y102871D01*
X120315Y102871D01*
X120335Y102874D01*
G37*
%LPC*%
G36*
X17027Y131631D02*
X17027Y131631D01*
X17027Y138395D01*
X25585Y138395D01*
X26231Y138222D01*
X26810Y137887D01*
X27283Y137414D01*
X27618Y136835D01*
X27791Y136189D01*
X27791Y131631D01*
X17027Y131631D01*
G37*
%LPD*%
%LPC*%
G36*
X17027Y75631D02*
X17027Y75631D01*
X17027Y82395D01*
X25585Y82395D01*
X26231Y82222D01*
X26810Y81887D01*
X27283Y81414D01*
X27618Y80835D01*
X27791Y80189D01*
X27791Y75631D01*
X17027Y75631D01*
G37*
%LPD*%
%LPC*%
G36*
X222209Y131631D02*
X222209Y131631D01*
X222209Y136189D01*
X222382Y136835D01*
X222717Y137414D01*
X223190Y137887D01*
X223769Y138222D01*
X224415Y138395D01*
X232973Y138395D01*
X232973Y131631D01*
X222209Y131631D01*
G37*
%LPD*%
%LPC*%
G36*
X222209Y75631D02*
X222209Y75631D01*
X222209Y80189D01*
X222382Y80835D01*
X222717Y81414D01*
X223190Y81887D01*
X223769Y82222D01*
X224415Y82395D01*
X232973Y82395D01*
X232973Y75631D01*
X222209Y75631D01*
G37*
%LPD*%
%LPC*%
G36*
X17027Y121313D02*
X17027Y121313D01*
X17027Y128077D01*
X27791Y128077D01*
X27791Y123519D01*
X27618Y122873D01*
X27283Y122294D01*
X26810Y121821D01*
X26231Y121486D01*
X25585Y121313D01*
X17027Y121313D01*
G37*
%LPD*%
%LPC*%
G36*
X17027Y65313D02*
X17027Y65313D01*
X17027Y72077D01*
X27791Y72077D01*
X27791Y67519D01*
X27618Y66873D01*
X27283Y66294D01*
X26810Y65821D01*
X26231Y65486D01*
X25585Y65313D01*
X17027Y65313D01*
G37*
%LPD*%
%LPC*%
G36*
X224415Y121313D02*
X224415Y121313D01*
X223769Y121486D01*
X223190Y121821D01*
X222717Y122294D01*
X222382Y122873D01*
X222209Y123519D01*
X222209Y128077D01*
X232973Y128077D01*
X232973Y121313D01*
X224415Y121313D01*
G37*
%LPD*%
%LPC*%
G36*
X224415Y65313D02*
X224415Y65313D01*
X223769Y65486D01*
X223190Y65821D01*
X222717Y66294D01*
X222382Y66873D01*
X222209Y67519D01*
X222209Y72077D01*
X232973Y72077D01*
X232973Y65313D01*
X224415Y65313D01*
G37*
%LPD*%
%LPC*%
G36*
X173481Y71119D02*
X173481Y71119D01*
X173481Y82043D01*
X178690Y82043D01*
X178690Y80005D01*
X178441Y79077D01*
X177960Y78244D01*
X177280Y77564D01*
X176910Y77350D01*
X176856Y77307D01*
X176797Y77273D01*
X176753Y77225D01*
X176702Y77184D01*
X176664Y77128D01*
X176617Y77077D01*
X176589Y77018D01*
X176553Y76965D01*
X176533Y76899D01*
X176504Y76837D01*
X176494Y76772D01*
X176475Y76710D01*
X176476Y76642D01*
X176466Y76574D01*
X176476Y76509D01*
X176476Y76444D01*
X176497Y76379D01*
X176508Y76311D01*
X176537Y76253D01*
X176556Y76191D01*
X176595Y76134D01*
X176626Y76073D01*
X176659Y76042D01*
X176707Y75972D01*
X176900Y75821D01*
X176910Y75812D01*
X177280Y75598D01*
X177960Y74918D01*
X178441Y74085D01*
X178690Y73157D01*
X178690Y71119D01*
X173481Y71119D01*
G37*
%LPD*%
%LPC*%
G36*
X164718Y71119D02*
X164718Y71119D01*
X164718Y73157D01*
X164967Y74085D01*
X165448Y74918D01*
X166128Y75598D01*
X166498Y75812D01*
X166552Y75855D01*
X166611Y75889D01*
X166655Y75937D01*
X166706Y75978D01*
X166744Y76034D01*
X166791Y76085D01*
X166819Y76144D01*
X166855Y76198D01*
X166875Y76263D01*
X166905Y76325D01*
X166914Y76390D01*
X166933Y76452D01*
X166932Y76521D01*
X166942Y76588D01*
X166932Y76653D01*
X166932Y76718D01*
X166911Y76783D01*
X166900Y76851D01*
X166871Y76909D01*
X166852Y76971D01*
X166813Y77028D01*
X166782Y77089D01*
X166749Y77120D01*
X166701Y77190D01*
X166508Y77341D01*
X166498Y77350D01*
X166128Y77564D01*
X165448Y78244D01*
X164967Y79077D01*
X164718Y80005D01*
X164718Y82043D01*
X169927Y82043D01*
X169927Y71119D01*
X164718Y71119D01*
G37*
%LPD*%
%LPC*%
G36*
X139477Y16777D02*
X139477Y16777D01*
X139477Y25006D01*
X140079Y24911D01*
X141600Y24416D01*
X143025Y23690D01*
X144319Y22750D01*
X145450Y21619D01*
X146390Y20325D01*
X147116Y18900D01*
X147611Y17379D01*
X147706Y16777D01*
X139477Y16777D01*
G37*
%LPD*%
%LPC*%
G36*
X127694Y16777D02*
X127694Y16777D01*
X127789Y17379D01*
X128284Y18900D01*
X129010Y20325D01*
X129950Y21619D01*
X131081Y22750D01*
X132375Y23690D01*
X133800Y24416D01*
X135321Y24911D01*
X135923Y25006D01*
X135923Y16777D01*
X127694Y16777D01*
G37*
%LPD*%
%LPC*%
G36*
X53499Y118353D02*
X53499Y118353D01*
X53499Y122395D01*
X59085Y122395D01*
X59731Y122222D01*
X60310Y121887D01*
X60783Y121414D01*
X61118Y120835D01*
X61291Y120189D01*
X61291Y118353D01*
X53499Y118353D01*
G37*
%LPD*%
%LPC*%
G36*
X42709Y118353D02*
X42709Y118353D01*
X42709Y120189D01*
X42882Y120835D01*
X43217Y121414D01*
X43690Y121887D01*
X44269Y122222D01*
X44915Y122395D01*
X50501Y122395D01*
X50501Y118353D01*
X42709Y118353D01*
G37*
%LPD*%
%LPC*%
G36*
X199499Y81313D02*
X199499Y81313D01*
X199499Y85355D01*
X207291Y85355D01*
X207291Y83519D01*
X207118Y82873D01*
X206783Y82294D01*
X206310Y81821D01*
X205731Y81486D01*
X205085Y81313D01*
X199499Y81313D01*
G37*
%LPD*%
%LPC*%
G36*
X190915Y81313D02*
X190915Y81313D01*
X190269Y81486D01*
X189690Y81821D01*
X189217Y82294D01*
X188882Y82873D01*
X188709Y83519D01*
X188709Y85355D01*
X196501Y85355D01*
X196501Y81313D01*
X190915Y81313D01*
G37*
%LPD*%
%LPC*%
G36*
X84327Y119633D02*
X84327Y119633D01*
X84327Y124842D01*
X86365Y124842D01*
X87293Y124593D01*
X88126Y124112D01*
X88806Y123432D01*
X89287Y122599D01*
X89536Y121671D01*
X89536Y119633D01*
X84327Y119633D01*
G37*
%LPD*%
%LPC*%
G36*
X75564Y119633D02*
X75564Y119633D01*
X75564Y121671D01*
X75813Y122599D01*
X76294Y123432D01*
X76974Y124112D01*
X77807Y124593D01*
X78735Y124842D01*
X80773Y124842D01*
X80773Y119633D01*
X75564Y119633D01*
G37*
%LPD*%
%LPC*%
G36*
X173481Y62356D02*
X173481Y62356D01*
X173481Y67565D01*
X178690Y67565D01*
X178690Y65527D01*
X178441Y64599D01*
X177960Y63766D01*
X177280Y63086D01*
X176447Y62605D01*
X175519Y62356D01*
X173481Y62356D01*
G37*
%LPD*%
%LPC*%
G36*
X167889Y62356D02*
X167889Y62356D01*
X166961Y62605D01*
X166128Y63086D01*
X165448Y63766D01*
X164967Y64599D01*
X164718Y65527D01*
X164718Y67565D01*
X169927Y67565D01*
X169927Y62356D01*
X167889Y62356D01*
G37*
%LPD*%
%LPC*%
G36*
X171703Y69341D02*
X171703Y69341D01*
X171703Y69343D01*
X171705Y69343D01*
X171705Y69341D01*
X171703Y69341D01*
G37*
%LPD*%
D10*
X94456Y121190D02*
X101124Y121190D01*
X101124Y114522D01*
X94456Y114522D01*
X94456Y121190D01*
X94456Y116634D02*
X101124Y116634D01*
X101124Y118746D02*
X94456Y118746D01*
X94456Y120858D02*
X101124Y120858D01*
X85884Y121190D02*
X79216Y121190D01*
X85884Y121190D02*
X85884Y114522D01*
X79216Y114522D01*
X79216Y121190D01*
X79216Y116634D02*
X85884Y116634D01*
X85884Y118746D02*
X79216Y118746D01*
X79216Y120858D02*
X85884Y120858D01*
D11*
X52000Y116854D03*
X52000Y106854D03*
X52000Y96854D03*
X52000Y86854D03*
D12*
X15250Y73854D03*
X15250Y129854D03*
D11*
X198000Y86854D03*
X198000Y96854D03*
X198000Y106854D03*
X198000Y116854D03*
D12*
X234750Y129854D03*
X234750Y73854D03*
D13*
X107000Y215500D03*
X142000Y215500D03*
D10*
X79216Y87154D02*
X79216Y80486D01*
X79216Y87154D02*
X85884Y87154D01*
X85884Y80486D01*
X79216Y80486D01*
X79216Y82598D02*
X85884Y82598D01*
X85884Y84710D02*
X79216Y84710D01*
X79216Y86822D02*
X85884Y86822D01*
X79216Y71914D02*
X79216Y65246D01*
X79216Y71914D02*
X85884Y71914D01*
X85884Y65246D01*
X79216Y65246D01*
X79216Y67358D02*
X85884Y67358D01*
X85884Y69470D02*
X79216Y69470D01*
X79216Y71582D02*
X85884Y71582D01*
X93948Y80486D02*
X93948Y87154D01*
X100616Y87154D01*
X100616Y80486D01*
X93948Y80486D01*
X93948Y82598D02*
X100616Y82598D01*
X100616Y84710D02*
X93948Y84710D01*
X93948Y86822D02*
X100616Y86822D01*
X93948Y71914D02*
X93948Y65246D01*
X93948Y71914D02*
X100616Y71914D01*
X100616Y65246D01*
X93948Y65246D01*
X93948Y67358D02*
X100616Y67358D01*
X100616Y69470D02*
X93948Y69470D01*
X93948Y71582D02*
X100616Y71582D01*
D14*
X106904Y155954D03*
X170404Y155954D03*
D10*
X168370Y87154D02*
X175038Y87154D01*
X175038Y80486D01*
X168370Y80486D01*
X168370Y87154D01*
X168370Y82598D02*
X175038Y82598D01*
X175038Y84710D02*
X168370Y84710D01*
X168370Y86822D02*
X175038Y86822D01*
X159798Y87154D02*
X153130Y87154D01*
X159798Y87154D02*
X159798Y80486D01*
X153130Y80486D01*
X153130Y87154D01*
X153130Y82598D02*
X159798Y82598D01*
X159798Y84710D02*
X153130Y84710D01*
X153130Y86822D02*
X159798Y86822D01*
X168370Y72676D02*
X175038Y72676D01*
X175038Y66008D01*
X168370Y66008D01*
X168370Y72676D01*
X168370Y68120D02*
X175038Y68120D01*
X175038Y70232D02*
X168370Y70232D01*
X168370Y72344D02*
X175038Y72344D01*
X159798Y72676D02*
X153130Y72676D01*
X159798Y72676D02*
X159798Y66008D01*
X153130Y66008D01*
X153130Y72676D01*
X153130Y68120D02*
X159798Y68120D01*
X159798Y70232D02*
X153130Y70232D01*
X153130Y72344D02*
X159798Y72344D01*
D15*
X138274Y113076D03*
X131774Y113076D03*
X125274Y113076D03*
X118774Y113076D03*
X118774Y87076D03*
X125274Y87076D03*
X131774Y87076D03*
X138274Y87076D03*
D16*
X61500Y15000D03*
D17*
X86900Y15000D03*
X112300Y15000D03*
X137700Y15000D03*
X163100Y15000D03*
X188500Y15000D03*
D18*
X150622Y9144D03*
X124460Y9144D03*
X99314Y9652D03*
X74676Y9144D03*
X175768Y9652D03*
X205740Y8890D03*
X116840Y60452D03*
X98552Y106426D03*
X228854Y50292D03*
X49276Y34290D03*
X13716Y189230D03*
X13716Y179070D03*
X13716Y168910D03*
X13716Y158750D03*
X13716Y148590D03*
X234696Y146050D03*
X234696Y156210D03*
X234696Y166370D03*
X234696Y176530D03*
X234696Y186690D03*
D19*
X118774Y90268D02*
X118774Y87076D01*
X118774Y90268D02*
X114300Y94742D01*
X83312Y94742D01*
X63754Y94742D01*
X55866Y86854D02*
X52000Y86854D01*
X55866Y86854D02*
X63754Y94742D01*
X118774Y87076D02*
X118774Y76708D01*
X118774Y72274D01*
X61500Y15000D01*
X82550Y83820D02*
X82550Y93980D01*
X83312Y94742D01*
X193562Y116854D02*
X198000Y116854D01*
X182626Y105918D02*
X155194Y105918D01*
D18*
X155194Y105918D03*
X118774Y76708D03*
D19*
X182626Y105918D02*
X193562Y116854D01*
X56722Y96854D02*
X52000Y96854D01*
X56722Y96854D02*
X59944Y100076D01*
X120956Y100076D01*
X125274Y53374D02*
X86900Y15000D01*
X125274Y53374D02*
X125274Y87076D01*
X108458Y83820D02*
X97282Y83820D01*
D18*
X108458Y83820D03*
D19*
X193468Y106854D02*
X198000Y106854D01*
X186690Y100076D02*
X125222Y100076D01*
X124714Y100076D01*
X120956Y100076D01*
X186690Y100076D02*
X193468Y106854D01*
D18*
X124714Y100076D03*
D19*
X125274Y100024D02*
X125274Y87076D01*
X125274Y100024D02*
X125222Y100076D01*
X82550Y68580D02*
X77470Y68580D01*
X70358Y75692D01*
D18*
X70358Y75692D03*
D19*
X97282Y68580D02*
X106172Y68580D01*
X108458Y70866D01*
D18*
X108458Y70866D03*
D20*
X138274Y113076D02*
X138274Y118462D01*
X170404Y150592D02*
X170404Y155954D01*
X170404Y150592D02*
X138274Y118462D01*
D21*
X142000Y191502D02*
X142000Y215500D01*
D20*
X170404Y163098D02*
X170404Y155954D01*
D21*
X154813Y178689D02*
X142000Y191502D01*
X154813Y178689D02*
X170404Y163098D01*
D22*
X188214Y155702D03*
D21*
X187962Y155954D01*
X170404Y155954D01*
D18*
X152146Y94234D03*
D23*
X196904Y95758D02*
X198000Y96854D01*
X86788Y106854D02*
X52000Y106854D01*
X86788Y106854D02*
X89408Y109474D01*
X97790Y117856D01*
X102570Y113076D01*
X118774Y113076D01*
D18*
X89408Y109474D03*
D23*
X152146Y94234D02*
X153670Y95758D01*
X196904Y95758D01*
D19*
X147320Y87076D02*
X138274Y87076D01*
X153208Y87076D02*
X156464Y83820D01*
X153208Y87076D02*
X147320Y87076D01*
D18*
X147320Y87076D03*
D19*
X147320Y69342D02*
X137414Y69342D01*
X131774Y74982D02*
X131774Y87076D01*
X131774Y74982D02*
X137414Y69342D01*
X147320Y69342D02*
X156464Y69342D01*
D18*
X147320Y69342D03*
D20*
X131774Y113076D02*
X131774Y126290D01*
X113665Y144399D01*
D21*
X107000Y169672D02*
X107000Y215500D01*
X107000Y169672D02*
X107000Y156050D01*
D20*
X106904Y155954D01*
D22*
X129032Y156464D03*
D21*
X107414Y156464D01*
X107000Y156050D01*
X106904Y155954D01*
X107000Y156050D02*
X107000Y169672D01*
D20*
X106904Y155954D02*
X113665Y149193D01*
X113665Y144399D01*
M02*
