G04 EAGLE Gerber RS-274X export*
G75*
%MOMM*%
%FSLAX34Y34*%
%LPD*%
%AMOC8*
5,1,8,0,0,1.08239X$1,22.5*%
G01*
%ADD10C,3.101600*%
%ADD11C,0.326897*%
%ADD12R,1.451600X0.701600*%
%ADD13R,2.101600X1.301600*%
%ADD14C,2.286000*%
%ADD15R,2.133600X3.403600*%
%ADD16R,0.501600X1.301600*%
%ADD17R,1.625600X1.625600*%
%ADD18C,1.625600*%


D10*
X25000Y25000D03*
X228200Y25000D03*
X25000Y228200D03*
X228200Y228200D03*
D11*
X101109Y121175D02*
X94471Y121175D01*
X101109Y121175D02*
X101109Y114537D01*
X94471Y114537D01*
X94471Y121175D01*
X94471Y117643D02*
X101109Y117643D01*
X101109Y120749D02*
X94471Y120749D01*
X85869Y121175D02*
X79231Y121175D01*
X85869Y121175D02*
X85869Y114537D01*
X79231Y114537D01*
X79231Y121175D01*
X79231Y117643D02*
X85869Y117643D01*
X85869Y120749D02*
X79231Y120749D01*
D12*
X52000Y116854D03*
X52000Y106854D03*
X52000Y96854D03*
X52000Y86854D03*
D13*
X15250Y73854D03*
X15250Y129854D03*
D12*
X198000Y86854D03*
X198000Y96854D03*
X198000Y106854D03*
X198000Y116854D03*
D13*
X234750Y129854D03*
X234750Y73854D03*
D14*
X107000Y215500D03*
X142000Y215500D03*
D11*
X79231Y87139D02*
X79231Y80501D01*
X79231Y87139D02*
X85869Y87139D01*
X85869Y80501D01*
X79231Y80501D01*
X79231Y83607D02*
X85869Y83607D01*
X85869Y86713D02*
X79231Y86713D01*
X79231Y71899D02*
X79231Y65261D01*
X79231Y71899D02*
X85869Y71899D01*
X85869Y65261D01*
X79231Y65261D01*
X79231Y68367D02*
X85869Y68367D01*
X85869Y71473D02*
X79231Y71473D01*
X93963Y80501D02*
X93963Y87139D01*
X100601Y87139D01*
X100601Y80501D01*
X93963Y80501D01*
X93963Y83607D02*
X100601Y83607D01*
X100601Y86713D02*
X93963Y86713D01*
X93963Y71899D02*
X93963Y65261D01*
X93963Y71899D02*
X100601Y71899D01*
X100601Y65261D01*
X93963Y65261D01*
X93963Y68367D02*
X100601Y68367D01*
X100601Y71473D02*
X93963Y71473D01*
D15*
X106904Y155954D03*
X170404Y155954D03*
D11*
X168385Y87139D02*
X175023Y87139D01*
X175023Y80501D01*
X168385Y80501D01*
X168385Y87139D01*
X168385Y83607D02*
X175023Y83607D01*
X175023Y86713D02*
X168385Y86713D01*
X159783Y87139D02*
X153145Y87139D01*
X159783Y87139D02*
X159783Y80501D01*
X153145Y80501D01*
X153145Y87139D01*
X153145Y83607D02*
X159783Y83607D01*
X159783Y86713D02*
X153145Y86713D01*
X168385Y72661D02*
X175023Y72661D01*
X175023Y66023D01*
X168385Y66023D01*
X168385Y72661D01*
X168385Y69129D02*
X175023Y69129D01*
X175023Y72235D02*
X168385Y72235D01*
X159783Y72661D02*
X153145Y72661D01*
X159783Y72661D02*
X159783Y66023D01*
X153145Y66023D01*
X153145Y72661D01*
X153145Y69129D02*
X159783Y69129D01*
X159783Y72235D02*
X153145Y72235D01*
D16*
X138274Y113076D03*
X131774Y113076D03*
X125274Y113076D03*
X118774Y113076D03*
X118774Y87076D03*
X125274Y87076D03*
X131774Y87076D03*
X138274Y87076D03*
D17*
X61500Y15000D03*
D18*
X86900Y15000D03*
X112300Y15000D03*
X137700Y15000D03*
X163100Y15000D03*
X188500Y15000D03*
M02*
