M48
;GenerationSoftware,Autodesk,EAGLE,9.1.1*%
;CreationDate,2018-08-10T03:52:19Z*%
FMAT,2
ICI,OFF
METRIC,TZ,000.000
T5C0.305
T4C0.610
T3C0.889
T2C1.000
T1C3.000
%
G90
M71
T1
X2500Y2500
X22820Y2500
X2500Y22820
X22820Y22820
T2
X10700Y21550
X14200Y21550
T3
X6150Y1500
X8690Y1500
X11230Y1500
X13770Y1500
X16310Y1500
X18850Y1500
T4
X18821Y15570
X12903Y15646
T5
X1372Y14859
X23470Y14605
X23470Y15621
X23470Y16637
X23470Y17653
X23470Y18669
X15519Y10592
X11877Y7671
X20574Y889
X12471Y10008
X7036Y7569
X10846Y7087
X15062Y914
X15215Y9423
X8941Y10947
X14732Y8708
X14732Y6934
X12446Y914
X9931Y965
X7468Y914
X17577Y965
X11684Y6045
X9855Y10643
X22885Y5029
X10846Y8382
X4928Y3429
X1372Y18923
X1372Y17907
X1372Y16891
X1372Y15875
M30